<svg width="559" height="289" viewBox="0 0 559 289" fill="none" xmlns="http://www.w3.org/2000/svg">
<path d="M290.6 199.9V275.9H268V199.9C271.7 200.4 275.5 200.6 279.3 200.6C283.1 200.7 286.9 200.4 290.6 199.9Z" fill="#ACC4E3"/>
<path d="M298.6 276H260.1V288.5H298.6V276Z" fill="#93ACCC"/>
<path d="M290.6 199.9V208.3C286.9 208.7 283.1 209 279.3 209C275.5 209 271.7 208.8 268 208.3V199.9C271.7 200.4 275.5 200.6 279.3 200.6C283.1 200.7 286.9 200.4 290.6 199.9Z" fill="#93ACCC"/>
<path d="M279.3 200.7C230.2 200.7 190.3 160.8 190.3 111.7C190.3 62.6 230.2 22.7 279.3 22.7C328.4 22.7 368.3 62.6 368.3 111.7C368.3 160.8 328.4 200.7 279.3 200.7Z" fill="#ACC4E3"/>
<path d="M271.5 148.7L253.2 185.8C222.6 175.1 200.7 145.9 200.7 111.6C200.7 70.8 231.8 37.2 271.6 33.3L257.8 62L257 63.6L258.6 64.6L281.8 79.5L271 128.4L270.9 128.6V128.7L271.5 148.7Z" fill="#EBF2FB"/>
<path d="M334.7 134.3L355 132.8C345.8 165.9 315.4 190.2 279.3 190.2C271.4 190.2 263.8 189.1 256.7 186.9L273.5 149.4L273.6 149.2V149L273.9 139.4L312.7 132.5L313.5 145.1L313.7 148.9L316.7 146.8L334.7 134.3Z" fill="#EBF2FB"/>
<path d="M357.9 111.6C357.9 117.4 357.3 123.1 356.1 128.5L333.8 130.1H333.2L332.7 130.4L317.9 141L318.7 128.9L318.9 124.9L314.9 125.8L273.9 135.1L274.1 129.1L288.3 79L289 76.7L286.9 75.6L262.2 62.1L273.1 33.4C275.1 33.3 277.1 33.2 279.2 33.2C322.7 33 357.9 68.2 357.9 111.6Z" fill="#EBF2FB"/>
<path d="M92 180.4H0V142.7L97.5 0H133.7V142.6H161.6V180.5H133.7V225.7H92V180.4ZM92 142.6V65.8L40.3 142.6H92Z" fill="#ACC4E3"/>
<path d="M489 180.4H397V142.7L494.6 0H530.8V142.6H558.7V180.5H530.8V225.7H489V180.4ZM489 142.6V65.8L437.3 142.6H489Z" fill="#ACC4E3"/>
</svg>
