<svg width="57" height="57" viewBox="0 0 57 57" fill="none" xmlns="http://www.w3.org/2000/svg">
<path fill-rule="evenodd" clip-rule="evenodd" d="M56.4183 27.916H53.3614C53.2591 23.4709 51.9921 19.1959 49.6687 15.4406L49.9379 15.5003C49.9794 15.5096 50.0216 15.5139 50.0638 15.5139C50.2158 15.5139 50.3647 15.4538 50.4751 15.3439L56.8303 8.98832C56.9802 8.83837 57.0359 8.6185 56.9768 8.41445C56.9171 8.21087 56.752 8.05556 56.5441 8.00961L51.6019 6.91212C51.5572 6.53846 51.393 6.17631 51.1068 5.89013C50.8202 5.60395 50.4586 5.43992 50.0845 5.39443L48.987 0.451999C48.9422 0.244692 48.7862 0.0789171 48.5822 0.019238C48.3964 -0.0347408 48.146 0.0281956 48.0078 0.1664L41.6531 6.52205C41.513 6.66258 41.4539 6.86512 41.4972 7.05928L41.5563 7.32789C37.8013 5.00436 33.5265 3.73726 29.0816 3.63558V0.577872C29.0816 0.29902 28.8849 0.0658877 28.6228 0.00946589H28.3766C28.1148 0.066004 27.918 0.29902 27.918 0.577872V3.63558C14.6677 3.94142 3.94418 14.6644 3.63836 27.916H0.581518C0.26034 27.916 0 28.177 0 28.4982C0 28.8194 0.260456 29.0797 0.581518 29.0797H3.63847C3.9443 42.332 14.6678 53.0544 27.9181 53.3602V56.4179C27.9181 56.7391 28.179 57 28.4996 57C28.8202 57 29.0817 56.7391 29.0817 56.4179V53.3607C35.5065 53.2142 41.5252 50.6433 46.0849 46.0833C50.6435 41.5238 53.2148 35.5047 53.3614 29.0796H56.4183C56.7395 29.0796 56.9999 28.8191 56.9999 28.498C56.9999 28.177 56.7394 27.916 56.4183 27.916ZM49.4619 6.71296C49.5746 6.59918 49.7234 6.54276 49.8727 6.54276C50.0221 6.54276 50.1703 6.59906 50.2841 6.71296C50.5111 6.93946 50.5111 7.30823 50.2841 7.5352L28.9114 28.9095C28.6849 29.136 28.3157 29.136 28.0892 28.9095C27.9787 28.7996 27.918 28.6535 27.918 28.4982C27.918 28.3429 27.9787 28.1967 28.0892 28.0868L49.4619 6.71296ZM28.4995 34.2903C31.6927 34.2903 34.2918 31.6921 34.2918 28.4982C34.2918 27.5626 34.0669 26.6479 33.6392 25.8262L37.4035 22.0622C38.7493 23.9261 39.4867 26.1863 39.4867 28.4983C39.4867 34.5568 34.5583 39.4861 28.4995 39.4861C22.4408 39.4861 17.5129 34.5568 17.5129 28.4983C17.5129 22.4397 22.4414 17.5099 28.4995 17.5099C30.8114 17.5099 33.0713 18.2473 34.9351 19.5942L31.1719 23.3588C30.3491 22.9304 29.435 22.7061 28.4995 22.7061C25.3068 22.7061 22.7078 25.3042 22.7078 28.4982C22.7078 31.6921 25.3069 34.2903 28.4995 34.2903ZM29.0816 52.1972V49.1542C29.0816 48.8332 28.8207 48.5727 28.4995 48.5727C28.1783 48.5727 27.918 48.833 27.918 49.1542V52.1972C15.3083 51.8919 5.1078 41.6903 4.80198 29.0798H7.84474C8.1658 29.0798 8.42626 28.8194 8.42626 28.4983C8.42626 28.1772 8.16592 27.9161 7.84474 27.9161H4.80198C5.1078 15.3057 15.3083 5.10406 27.918 4.79927V7.84221C27.918 8.1634 28.1789 8.42376 28.4995 8.42376C28.8201 8.42376 29.0816 8.16329 29.0816 7.84221V4.79927C33.6983 4.91037 38.1191 6.33987 41.9168 8.95331L42.5825 11.9475L40.2953 14.2338C36.9834 11.4923 32.8164 9.98728 28.4995 9.98728C18.293 9.98728 9.98969 18.2911 9.98969 28.4982C9.98969 38.7053 18.293 47.0085 28.4995 47.0085C38.7061 47.0085 47.0093 38.7047 47.0093 28.4982C47.0093 24.1816 45.5044 20.0144 42.7625 16.7017L45.0497 14.4148L48.0437 15.0795C50.6565 18.8775 52.086 23.2996 52.1965 27.9159H49.1548C48.8337 27.9159 48.5727 28.1768 48.5727 28.498C48.5727 28.8192 48.8336 29.0796 49.1548 29.0796H52.1975C51.8917 41.69 41.6912 51.8917 29.0815 52.1969L29.0816 52.1972Z" fill="#0293ED"/>
</svg>
