<svg width="51" height="56" viewBox="0 0 51 56" fill="none" xmlns="http://www.w3.org/2000/svg">
<path d="M11.7072 16.2629C13.9079 16.6451 15.3865 18.745 15.0036 20.9406C14.6207 23.1361 12.5192 24.608 10.3186 24.2258C8.11792 23.8437 6.63822 21.75 7.02109 19.5544C7.40397 17.3589 9.50656 15.8808 11.7072 16.2629Z" fill="#0293ED"/>
<path d="M23.4006 17.9056C23.3165 18.9872 24.0266 19.9684 25.0599 20.2489L23.9032 22.2578C23.841 22.366 23.7595 22.4661 23.6884 22.5408C22.3335 23.9632 20.8161 25.5171 18.8585 26.6683C17.2632 27.6065 15.3305 28.2341 13.1333 28.2278C12.931 28.2257 12.7588 28.3737 12.7305 28.574L11.9832 34.028C11.9433 34.3033 12.1881 34.5354 12.4609 34.4807L18.4058 33.2923C19.7502 33.0205 20.9525 34.1103 20.8074 35.4742L20.1667 41.5939C20.1506 41.7214 20.1992 41.848 20.2932 41.9351L21.7395 43.2998C22.0449 43.5878 22.1148 44.0295 22.0023 44.4066C21.8903 44.7837 21.6441 45.029 21.2867 45.029H17.4171C16.6173 44.9447 16.3086 44.6691 16.1273 44.2868C15.946 43.9044 15.9331 43.356 15.9891 42.8222L16.4618 38.3235C16.4908 38.0527 16.2498 37.8305 15.9825 37.8841L9.28524 39.2489C8.94431 39.3185 8.89773 39.764 8.83423 40.0694L7.39628 46.9863C7.33153 47.2961 7.29096 47.552 7.20142 47.7469L4.77318 53.0427C4.70458 53.1973 4.74001 53.378 4.86142 53.4954L5.56542 54.1944C5.86881 54.4885 5.9412 54.9389 5.83016 55.3145C5.71904 55.6901 5.47824 55.9303 5.1195 55.9303H1.11182C0.588517 55.9303 0.288007 55.6082 0.111582 55.0632C-0.0649156 54.518 -0.0294837 53.7903 0.199819 53.2957L3.35703 46.457C3.37958 46.4116 3.39182 46.3623 3.39536 46.3121L3.99284 37.6893L5.57228 26.4418C5.67275 25.7282 5.97297 25.2746 6.39612 24.9939C6.81931 24.713 7.39338 24.6043 8.04379 24.6927L11.9948 25.227C14.2182 25.5377 15.8708 25.0572 17.3789 24.1701C18.8534 23.303 20.1669 21.9865 21.4732 20.6351C21.4957 20.6126 21.5182 20.5878 21.5363 20.5601L22.7063 18.5163C22.8805 18.2119 23.1355 17.9846 23.4006 17.9056Z" fill="#0293ED"/>
<path d="M43.2526 8.6769L45.7757 20.3837C45.919 21.048 45.8098 21.7908 45.5608 22.5224L44.0014 27.1142C43.9337 27.3184 44.0384 27.5398 44.2394 27.6168L49.6301 29.6356C50.0267 29.7838 50.2273 30.0864 50.3108 30.4794C50.3942 30.8725 50.3204 31.3383 50.1526 31.6295L48.197 35.0147C48.0176 35.3255 47.6841 35.4143 47.3033 35.3226C46.9226 35.2312 46.569 34.9468 46.4662 34.5371V34.5304L45.9635 32.5732C45.9313 32.4469 45.8402 32.3439 45.7188 32.2968L40.1317 30.1964C39.7665 30.0589 39.5334 29.754 39.4144 29.3277C39.2952 28.9014 39.3193 28.3751 39.4659 27.9446L41.1701 22.9434C41.2406 22.7334 41.1286 22.5058 40.9189 22.4341C40.707 22.3591 40.4746 22.4721 40.403 22.6853L39.887 24.2032L36.4902 27.1573C36.4174 27.2224 36.3707 27.3116 36.3588 27.4086C36.3588 27.4086 35.8171 31.5395 35.5466 33.6048C35.4567 34.2914 35.2915 34.7287 35.0689 34.9762C34.8464 35.2236 34.5496 35.3474 33.9871 35.3474H30.2823C29.5789 35.3474 29.1939 34.1576 29.8163 33.6298L31.5589 32.1519C31.6356 32.0862 31.6851 31.994 31.6971 31.8939L32.4893 25.9739C32.554 25.4878 32.7881 25.0377 33.1567 24.7157L38.3593 20.1871C38.4592 20.1011 38.5107 19.972 38.4975 19.8409L37.9399 16.0932C37.6282 16.4161 37.2899 16.7158 36.9248 16.9915C34.8829 18.5335 32.1749 19.3733 28.7347 19.904C28.5962 19.9265 28.4519 19.9298 28.3136 19.9104L25.451 19.5143C24.6533 19.4038 24.1038 18.6821 24.2111 17.8849C24.3196 17.0858 25.0472 16.5376 25.8471 16.6467L28.3386 16.9862C28.3785 16.9895 28.4191 16.9877 28.4584 16.9798C31.5326 16.4846 33.7637 15.7448 35.1756 14.678C36.3873 13.7626 37.1204 12.5679 37.4157 10.9533C37.5249 10.3572 37.6972 9.80106 38.0066 9.36223C38.3161 8.92336 38.7521 8.57714 39.5028 8.38028L41.7496 7.79609C42.5651 7.58416 43.1353 8.13291 43.2526 8.6769Z" fill="#0293ED"/>
<path d="M26.5285 36.1966C26.1814 36.1964 25.8737 36.4221 25.7679 36.7525L23.045 45.1207L25.5732 47.9584H29.3412C29.4779 47.9577 29.6067 48.0228 29.6874 48.1332L32.3536 51.8646C32.4892 52.0539 32.4478 52.317 32.2605 52.4554C32.0707 52.5945 31.8041 52.5533 31.665 52.3635L31.663 52.3607L29.1216 48.8074H25.3853C25.2623 48.8076 25.1453 48.7548 25.0641 48.6624L22.5028 45.7882H11.2703C10.9514 45.7867 10.6618 45.975 10.5347 46.2675L6.81491 54.8171C6.58529 55.3453 6.97306 55.9364 7.54887 55.9338H49.6261C50.0667 55.9338 50.4233 55.5755 50.4233 55.1349V36.9956C50.4233 36.555 50.0667 36.1967 49.6261 36.1967L26.5285 36.1966Z" fill="#0293ED"/>
<path d="M38.3983 0.060183C40.5989 0.44232 42.0775 2.54228 41.6946 4.73783C41.3118 6.93335 39.2103 8.40522 37.0096 8.02305C34.809 7.64092 33.3293 5.54722 33.7122 3.35167C34.095 1.15613 36.1976 -0.321979 38.3983 0.060183Z" fill="#0293ED"/>
</svg>
