<svg width="64" height="55" viewBox="0 0 64 55" fill="none" xmlns="http://www.w3.org/2000/svg">
<path fill-rule="evenodd" clip-rule="evenodd" d="M0.593875 29.5521L7.40887 30.9897C7.86083 32.4106 8.43852 33.7893 9.13525 35.1098L5.3415 40.8983C5.24789 41.0409 5.20656 41.2109 5.22442 41.3801C5.24229 41.5492 5.31825 41.7072 5.43962 41.8275L13.305 49.6139C13.4261 49.7347 13.5856 49.8105 13.7566 49.8285C13.9275 49.8465 14.0995 49.8057 14.2436 49.7129L20.0905 45.9571C21.4251 46.6466 22.8183 47.2187 24.254 47.667L25.7052 54.4121C25.741 54.5783 25.8333 54.7274 25.9667 54.8345C26.1002 54.9415 26.2667 54.9999 26.4384 55H37.5616C37.7334 54.9999 37.9 54.9415 38.0336 54.8345C38.1672 54.7275 38.2597 54.5784 38.2956 54.4121L39.7469 47.6661C41.1827 47.2186 42.576 46.6467 43.9105 45.9571L49.7565 49.7129C49.9006 49.8057 50.0726 49.8466 50.2435 49.8285C50.4145 49.8105 50.5739 49.7347 50.695 49.6139L58.5604 41.8275C58.6817 41.7072 58.7577 41.5492 58.7756 41.3801C58.7934 41.2109 58.7521 41.0409 58.6585 40.8983L54.8647 35.1098C55.5613 33.7892 56.1393 32.4105 56.592 30.9897L63.4061 29.5522C63.5741 29.517 63.7247 29.4257 63.8328 29.2937C63.9409 29.1617 63.9999 28.997 64 28.827V23.3202C64 23.1233 63.921 22.9344 63.7803 22.7952C63.6397 22.6559 63.4489 22.5777 63.25 22.5777H48.3918C48.1928 22.5777 48.0021 22.6559 47.8614 22.7952C47.7208 22.9344 47.6418 23.1233 47.6418 23.3202C47.63 27.4194 45.977 31.3468 43.045 34.2412C40.1129 37.1357 36.1412 38.7612 32.0006 38.7612C27.8599 38.7612 23.8882 37.1357 20.9562 34.2412C18.0242 31.3468 16.3711 27.4194 16.3594 23.3202C16.3592 23.1233 16.2801 22.9346 16.1395 22.7954C15.9989 22.6562 15.8082 22.5779 15.6094 22.5777H0.75C0.551088 22.5777 0.360322 22.6559 0.21967 22.7952C0.0790176 22.9344 0 23.1233 0 23.3202V28.827C0.000111429 28.9969 0.0591573 29.1617 0.16726 29.2936C0.275363 29.4256 0.425966 29.5169 0.593875 29.5521ZM34.7332 32.4499H29.2676C28.8324 32.4494 28.4152 32.2781 28.1075 31.9734C27.7998 31.6688 27.6267 31.2558 27.6261 30.825V28.3376H36.3737V30.825C36.3733 31.2556 36.2004 31.6686 35.8928 31.9732C35.5853 32.2778 35.1683 32.4493 34.7332 32.4499ZM32 18.6519C31.7156 18.6521 31.4376 18.5688 31.2011 18.4125C30.9646 18.2563 30.7802 18.0341 30.6712 17.774C30.5623 17.514 30.5336 17.2278 30.589 16.9517C30.6444 16.6756 30.7812 16.4219 30.9822 16.2228C31.1832 16.0237 31.4393 15.888 31.7182 15.833C31.9971 15.7781 32.2862 15.8062 32.5489 15.9139C32.8116 16.0215 33.0362 16.204 33.1942 16.438C33.3522 16.6721 33.4365 16.9472 33.4365 17.2287C33.4361 17.6059 33.2847 17.9675 33.0154 18.2343C32.7461 18.5011 32.381 18.6512 32 18.6519ZM22.0079 17.2287C22.0082 15.5185 22.4565 13.8375 23.3089 12.3499C24.1613 10.8623 25.3888 9.61891 26.8714 8.74112C28.3541 7.86333 30.0414 7.38111 31.7685 7.34155C33.4956 7.30198 35.2035 7.70641 36.7256 8.51536C38.2478 9.32431 39.532 10.5101 40.453 11.9571C41.374 13.4041 41.9003 15.0627 41.9806 16.7712C42.0608 18.4796 41.6923 20.1795 40.9109 21.7048C40.1295 23.2302 38.962 24.5289 37.5223 25.4742C37.0228 25.7983 36.6547 26.2863 36.4827 26.8525H32.7506V20.0405C33.4403 19.8601 34.04 19.4374 34.4379 18.8513C34.8358 18.2651 35.0045 17.5557 34.9127 16.8554C34.8208 16.1551 34.4746 15.5118 33.9387 15.0458C33.4029 14.5797 32.7139 14.3226 32.0006 14.3226C31.2873 14.3226 30.5984 14.5797 30.0625 15.0458C29.5266 15.5118 29.1804 16.1551 29.0886 16.8554C28.9967 17.5557 29.1655 18.2651 29.5633 18.8513C29.9612 19.4374 30.561 19.8601 31.2506 20.0405V26.8527H27.5173C27.3456 26.2864 26.9774 25.7983 26.4778 25.4744C25.1024 24.5728 23.9742 23.3477 23.1942 21.9087C22.4141 20.4698 22.0065 18.8618 22.0079 17.2287ZM44.306 6.09589C44.378 6.02745 44.4354 5.94549 44.475 5.8548C44.5145 5.76411 44.5354 5.66651 44.5364 5.56773C44.5374 5.46895 44.5184 5.37097 44.4807 5.27953C44.4429 5.18808 44.3871 5.10502 44.3165 5.03519C44.2459 4.96537 44.162 4.91019 44.0696 4.87289C43.9772 4.8356 43.8782 4.81693 43.7784 4.81798C43.6787 4.81903 43.5801 4.83979 43.4885 4.87902C43.3969 4.91826 43.3142 4.9752 43.2451 5.0465L41.1201 7.15023C40.9826 7.29005 40.9061 7.47786 40.9074 7.67304C40.9087 7.86821 40.9875 8.05505 41.1268 8.19312C41.2662 8.33118 41.4548 8.40938 41.652 8.41078C41.8491 8.41219 42.0389 8.33669 42.1802 8.20062L44.3052 6.09539L44.306 6.09589ZM48.6535 16.4863C48.8524 16.4863 49.0432 16.5645 49.1838 16.7037C49.3245 16.843 49.4035 17.0318 49.4035 17.2287C49.4035 17.4257 49.3245 17.6145 49.1838 17.7538C49.0432 17.893 48.8524 17.9712 48.6535 17.9712H45.6475C45.4486 17.9712 45.2578 17.893 45.1172 17.7538C44.9765 17.6145 44.8975 17.4257 44.8975 17.2287C44.8975 17.0318 44.9765 16.843 45.1172 16.7037C45.2578 16.5645 45.4486 16.4863 45.6475 16.4863H48.6535ZM41.1204 27.308C40.9837 27.168 40.908 26.9805 40.9097 26.7858C40.9113 26.5911 40.9901 26.4049 41.1291 26.2672C41.2681 26.1294 41.4562 26.0513 41.6529 26.0495C41.8495 26.0478 42.039 26.1225 42.1805 26.2577L44.3055 28.3628C44.3752 28.4316 44.4304 28.5133 44.4681 28.6033C44.5058 28.6933 44.5252 28.7897 44.5252 28.8871C44.5252 28.9845 44.5058 29.0809 44.4681 29.1709C44.4304 29.2609 44.3752 29.3426 44.3055 29.4114C44.236 29.4806 44.1533 29.5355 44.0623 29.573C43.9713 29.6105 43.8737 29.6298 43.7751 29.6298C43.6765 29.6298 43.5789 29.6105 43.4878 29.573C43.3968 29.5355 43.3141 29.4806 43.2446 29.4114L41.1196 27.3076L41.1204 27.308ZM19.694 28.3628L21.819 26.2577C21.9597 26.1185 22.1505 26.0402 22.3494 26.0402C22.5484 26.0402 22.7392 26.1185 22.8799 26.2577C23.0206 26.397 23.0996 26.5859 23.0996 26.7829C23.0996 26.9798 23.0206 27.1687 22.8799 27.308L20.7549 29.4117C20.6863 29.4847 20.6035 29.5433 20.5116 29.584C20.4196 29.6246 20.3203 29.6465 20.2196 29.6484C20.1189 29.6502 20.0189 29.632 19.9254 29.5947C19.832 29.5574 19.7471 29.5019 19.6759 29.4315C19.6046 29.361 19.5484 29.2771 19.5106 29.1847C19.4728 29.0922 19.4542 28.9932 19.4559 28.8935C19.4576 28.7938 19.4795 28.6955 19.5204 28.6044C19.5613 28.5133 19.6204 28.4312 19.694 28.3632V28.3628ZM18.3526 16.4863C18.5515 16.4863 18.7423 16.5645 18.883 16.7037C19.0236 16.843 19.1026 17.0318 19.1026 17.2287C19.1026 17.4257 19.0236 17.6145 18.883 17.7538C18.7423 17.893 18.5515 17.9712 18.3526 17.9712H15.3465C15.1476 17.9712 14.9568 17.893 14.8162 17.7538C14.6755 17.6145 14.5965 17.4257 14.5965 17.2287C14.5965 17.0318 14.6755 16.843 14.8162 16.7037C14.9568 16.5645 15.1476 16.4863 15.3465 16.4863H18.3526ZM19.694 6.09589L21.819 8.20111C21.8887 8.27007 21.9714 8.32478 22.0624 8.36209C22.1534 8.39941 22.251 8.41862 22.3495 8.41861C22.448 8.41861 22.5456 8.39939 22.6366 8.36206C22.7276 8.32473 22.8103 8.27002 22.8799 8.20105C22.9496 8.13208 23.0049 8.05021 23.0425 7.9601C23.0802 7.86999 23.0996 7.77341 23.0996 7.67588C23.0996 7.57835 23.0802 7.48177 23.0425 7.39167C23.0048 7.30156 22.9495 7.21969 22.8799 7.15073L20.7549 5.04699C20.6133 4.91239 20.4242 4.83808 20.2279 4.83999C20.0317 4.8419 19.844 4.91988 19.7052 5.05721C19.5664 5.19453 19.4874 5.38026 19.4853 5.57454C19.4832 5.76881 19.5582 5.95616 19.694 6.09639V6.09589ZM32 4.46116C31.8012 4.46116 31.6106 4.38304 31.4699 4.24395C31.3293 4.10487 31.2502 3.9162 31.25 3.71941V0.742496C31.25 0.545574 31.329 0.356717 31.4697 0.217472C31.6103 0.0782269 31.8011 0 32 0C32.1989 0 32.3897 0.0782269 32.5303 0.217472C32.671 0.356717 32.75 0.545574 32.75 0.742496V3.71941C32.7498 3.9162 32.6707 4.10487 32.5301 4.24395C32.3894 4.38304 32.1988 4.46116 32 4.46116Z" fill="#0293ED"/>
</svg>
