<svg width="46" height="32" viewBox="0 0 46 32" fill="none" xmlns="http://www.w3.org/2000/svg">
<path d="M45.5948 2.28631L31.644 16L45.5948 29.7137C45.847 29.1922 46 28.6156 46 28V4C46 3.38427 45.847 2.80782 45.5948 2.28631Z" fill="#0293ED"/>
<path d="M41.957 0H4.04297C3.42062 0 2.83798 0.151378 2.31087 0.400889L20.1415 17.9532C21.7181 19.513 24.2819 19.513 25.8585 17.9532L43.6891 0.400889C43.162 0.151378 42.5794 0 41.957 0Z" fill="#0293ED"/>
<path d="M0.405195 2.28631C0.153004 2.80782 0 3.38427 0 4V28C0 28.6157 0.153004 29.1923 0.405195 29.7137L14.356 16L0.405195 2.28631Z" fill="#0293ED"/>
<path d="M29.7383 17.8854L27.7641 19.8386C25.1372 22.4376 20.8627 22.4376 18.2358 19.8386L16.2617 17.8854L2.31087 31.5991C2.83798 31.8486 3.42062 32 4.04297 32H41.957C42.5794 32 43.162 31.8486 43.6891 31.5991L29.7383 17.8854Z" fill="#0293ED"/>
</svg>
