<svg width="51" height="51" viewBox="0 0 51 51" fill="none" xmlns="http://www.w3.org/2000/svg">
<path d="M46.65 35.757C45.9265 35.3596 45.0182 35.6239 44.621 36.3471C44.2237 37.0703 44.4878 37.9788 45.2111 38.376C46.9909 39.3538 48.0117 40.4377 48.0117 41.3499C48.0117 42.4657 46.4309 44.1949 41.994 45.7023C37.6107 47.1916 31.753 48.0117 25.5 48.0117C19.247 48.0117 13.3893 47.1916 9.00598 45.7023C4.56908 44.195 2.98828 42.4657 2.98828 41.3499C2.98828 40.4377 4.00908 39.3538 5.7889 38.3759C6.51216 37.9787 6.77633 37.0702 6.37898 36.347C5.98164 35.6238 5.0735 35.3595 4.35004 35.7569C2.36562 36.8471 0 38.7024 0 41.3499C0 43.3794 1.39573 46.2728 8.04465 48.5318C12.7295 50.1234 18.9286 51 25.5 51C32.0714 51 38.2705 50.1234 42.9553 48.5318C49.6043 46.2728 51 43.3794 51 41.3499C51 38.7024 48.6344 36.8471 46.65 35.757Z" fill="#0293ED"/>
<path d="M14.2194 43.5422C17.2525 44.3991 21.2587 44.871 25.5 44.871C29.7413 44.871 33.7475 44.3992 36.7806 43.5422C40.4913 42.4941 42.3728 40.9766 42.3728 39.0324C42.3728 37.0882 40.4913 35.5709 36.7806 34.5227C35.9568 34.29 35.0609 34.0859 34.1084 33.9118C33.5912 34.8055 33.0492 35.7254 32.4825 36.6718C33.5368 36.83 34.5266 37.0239 35.4255 37.2529C38.1564 37.9485 39.1541 38.7315 39.3591 39.0325C39.154 39.3336 38.1565 40.1167 35.4256 40.8121C32.8408 41.4705 29.5153 41.846 26.0127 41.8796C25.8431 41.8921 25.6721 41.8992 25.5 41.8992C25.3278 41.8992 25.1569 41.8921 24.9872 41.8796C21.4846 41.846 18.1591 41.4706 15.5743 40.8121C12.8434 40.1167 11.8458 39.3335 11.6407 39.0325C11.8458 38.7315 12.8435 37.9485 15.5744 37.2529C16.4733 37.024 17.4631 36.83 18.5175 36.6718C17.9508 35.7255 17.4088 34.8054 16.8916 33.9118C15.9391 34.086 15.0431 34.29 14.2194 34.5227C10.5087 35.5709 8.62717 37.0883 8.62717 39.0324C8.62717 40.9766 10.5087 42.494 14.2194 43.5422Z" fill="#0293ED"/>
<path d="M25.5 38.9108C26.8301 38.9108 28.0382 38.2331 28.7321 37.0978C33.5941 29.1433 39.3895 18.6598 39.3895 13.8894C39.3895 6.23076 33.1588 0 25.5 0C17.8412 0 11.6105 6.23076 11.6105 13.8894C11.6105 18.6598 17.406 29.1433 22.2679 37.0978C22.9618 38.2331 24.17 38.9108 25.5 38.9108ZM19.9172 12.9358C19.9172 9.85754 22.4217 7.35316 25.5 7.35316C28.5783 7.35316 31.0828 9.85754 31.0828 12.9358C31.0828 16.0141 28.5783 18.5185 25.5 18.5185C22.4217 18.5185 19.9172 16.0142 19.9172 12.9358Z" fill="#0293ED"/>
</svg>
