<svg width="47" height="47" viewBox="0 0 47 47" fill="none" xmlns="http://www.w3.org/2000/svg">
<path d="M23.5 0C10.575 0 0 10.575 0 23.5C0 36.425 10.575 47 23.5 47C36.425 47 47 36.425 47 23.5C47 10.575 36.425 0 23.5 0ZM23.5 43.2547C12.6312 43.2547 3.74531 34.3688 3.74531 23.5C3.74531 12.6312 12.5578 3.74531 23.5 3.74531C34.4422 3.74531 43.2547 12.6312 43.2547 23.5C43.2547 34.3688 34.3688 43.2547 23.5 43.2547Z" fill="#0293ED"/>
<path d="M23.5 5.21406C13.4391 5.21406 5.21406 13.4391 5.21406 23.5C5.21406 33.6344 13.4391 41.7859 23.5 41.7859C33.5609 41.7859 41.7859 33.6344 41.7859 23.5C41.7859 13.4391 33.5609 5.21406 23.5 5.21406ZM8.29844 24.2344H6.82969C6.4625 24.2344 6.09531 23.9406 6.09531 23.5C6.09531 23.1328 6.38906 22.7656 6.82969 22.7656H8.29844C8.66563 22.7656 9.03281 23.0594 9.03281 23.5C8.95938 23.8672 8.66563 24.2344 8.29844 24.2344ZM22.7656 6.75625C22.7656 6.38906 23.0594 6.02187 23.5 6.02187C23.8672 6.02187 24.2344 6.31562 24.2344 6.75625V8.225C24.2344 8.59219 23.9406 8.95937 23.5 8.95937C23.1328 8.95937 22.7656 8.66562 22.7656 8.225V6.75625ZM13.2188 34.8094L12.1906 35.8375C12.0437 35.9844 11.8969 36.0578 11.6766 36.0578C11.4562 36.0578 11.3094 35.9844 11.1625 35.8375C10.8688 35.5438 10.8688 35.1031 11.1625 34.8094L12.1906 33.7812C12.4844 33.4875 12.925 33.4875 13.2188 33.7812C13.5125 34.075 13.5125 34.5156 13.2188 34.8094ZM13.2188 13.2188C13.0719 13.3656 12.925 13.4391 12.7047 13.4391C12.4844 13.4391 12.3375 13.3656 12.1906 13.2188L11.1625 12.1906C10.8688 11.8969 10.8688 11.4563 11.1625 11.1625C11.4563 10.8688 11.8969 10.8688 12.1906 11.1625L13.2188 12.1906C13.5125 12.4844 13.5125 12.925 13.2188 13.2188ZM24.2344 40.2437C24.2344 40.6109 23.9406 40.9781 23.5 40.9781C23.1328 40.9781 22.7656 40.6844 22.7656 40.2437V38.775C22.7656 38.4078 23.0594 38.0406 23.5 38.0406C23.8672 38.0406 24.2344 38.3344 24.2344 38.775V40.2437ZM31.4312 24.2344H25.85C25.5562 25.2625 24.6016 25.9969 23.5 25.9969C22.1047 25.9969 21.0031 24.8953 21.0031 23.5C21.0031 22.3984 21.7375 21.4438 22.7656 21.15V12.0437C22.7656 11.6766 23.0594 11.3094 23.5 11.3094C23.8672 11.3094 24.2344 11.6031 24.2344 12.0437V21.15C25.0422 21.3703 25.6297 22.0312 25.85 22.7656H31.4312C31.7984 22.7656 32.1656 23.0594 32.1656 23.5C32.1656 23.8672 31.7984 24.2344 31.4312 24.2344ZM35.8375 35.8375C35.6906 35.9844 35.5438 36.0578 35.3234 36.0578C35.1766 36.0578 34.9562 35.9844 34.8094 35.8375L33.7812 34.8094C33.4875 34.5156 33.4875 34.075 33.7812 33.7812C34.075 33.4875 34.5156 33.4875 34.8094 33.7812L35.8375 34.8094C36.1312 35.1031 36.1312 35.5438 35.8375 35.8375ZM35.8375 12.1906L34.7359 13.2188C34.5891 13.3656 34.4422 13.4391 34.2219 13.4391C34.0016 13.4391 33.8547 13.3656 33.7078 13.2188C33.4141 12.925 33.4141 12.4844 33.7078 12.1906L34.7359 11.1625C35.0297 10.8688 35.4703 10.8688 35.7641 11.1625C36.1313 11.4563 36.1312 11.8969 35.8375 12.1906ZM40.2437 24.2344H38.775C38.4078 24.2344 38.0406 23.9406 38.0406 23.5C38.0406 23.1328 38.3344 22.7656 38.775 22.7656H40.2437C40.6109 22.7656 40.9781 23.0594 40.9781 23.5C40.9047 23.8672 40.6109 24.2344 40.2437 24.2344Z" fill="#0293ED"/>
<path d="M23.5 22.4719C22.9125 22.4719 22.4719 22.9125 22.4719 23.5C22.4719 24.0875 22.9125 24.5281 23.5 24.5281C24.0875 24.5281 24.5281 24.0875 24.5281 23.5C24.5281 22.9125 24.0875 22.4719 23.5 22.4719Z" fill="#0293ED"/>
</svg>
