<svg width="260" height="221" viewBox="0 0 260 221" fill="none" xmlns="http://www.w3.org/2000/svg">
<path d="M82.5189 73.4471L76.6247 83.6572L82.5189 93.8674H94.3073L100.202 83.6572L94.3073 73.4471H82.5189ZM93.9799 93.2086H83.1738L77.6071 83.6572L83.1738 74.1058H93.9799L99.5466 83.6572L93.9799 93.2086Z" fill="#F4F6FE"/>
<path d="M135.894 113.629L134.584 115.605L135.894 117.581H138.186L139.496 115.605L138.186 113.629H135.894ZM137.859 117.252H136.222L135.239 115.934L136.222 114.617H137.859L138.841 115.934L137.859 117.252Z" fill="#F4F6FE"/>
<path d="M100.856 113.629L99.5466 115.605L100.856 117.581H103.149L104.458 115.605L103.149 113.629H100.856ZM102.821 117.252H101.184L100.202 115.934L101.184 114.617H102.821L103.804 115.934L102.821 117.252Z" fill="#F4F6FE"/>
<path d="M135.239 115.276H104.131V115.934H135.239V115.276Z" fill="#F4F6FE"/>
<path d="M135.894 121.534L134.584 123.51L135.894 125.486H138.186L139.496 123.51L138.186 121.534H135.894ZM137.859 125.156H136.222L135.239 123.839L136.222 122.522H137.859L138.841 123.839L137.859 125.156Z" fill="#F4F6FE"/>
<path d="M100.856 121.534L99.5466 123.51L100.856 125.486H103.149L104.458 123.51L103.149 121.534H100.856ZM102.821 125.156H101.184L100.202 123.839L101.184 122.522H102.821L103.804 123.839L102.821 125.156Z" fill="#F4F6FE"/>
<path d="M135.239 123.51H104.131V124.168H135.239V123.51Z" fill="#F4F6FE"/>
<path d="M80.2267 102.101L79.5718 104.407L81.2091 106.054L83.5013 105.395L84.1562 103.089L82.5189 101.443L80.2267 102.101ZM83.1738 105.066L81.5365 105.395L80.2267 104.078L80.5542 102.431L82.1914 102.101L83.5013 103.419L83.1738 105.066Z" fill="#F4F6FE"/>
<path d="M55.6675 77.07L55.0126 79.3756L56.6499 81.0224L58.9421 80.3636L59.597 78.0581L57.9597 76.4113L55.6675 77.07ZM58.2871 80.0343L56.6499 80.3636L55.6675 79.3756L55.995 77.7288L57.6322 77.3994L58.9421 78.7168L58.2871 80.0343Z" fill="#F4F6FE"/>
<path d="M58.2871 80.693L80.5542 102.76L80.8816 102.101L58.9421 80.0343L58.2871 80.693Z" fill="#F4F6FE"/>
<path d="M3.27456 80.0343L1.96474 82.0104L3.27456 83.9866H5.56675L6.87657 82.0104L5.56675 80.0343H3.27456ZM5.23929 83.6572H3.60202L2.61965 82.3398L3.60202 81.0224H5.23929L6.22166 82.3398L5.23929 83.6572Z" fill="#F4F6FE"/>
<path d="M38.3123 80.0343L37.0025 82.0104L38.3123 83.9866H40.6045L41.9144 82.0104L40.6045 80.0343H38.3123ZM40.2771 83.6572H38.6398L37.6574 82.3398L38.6398 81.0224H40.2771L41.2594 82.3398L40.2771 83.6572Z" fill="#F4F6FE"/>
<path d="M37.6574 81.6811H6.54912V82.3398H37.6574V81.6811Z" fill="#F4F6FE"/>
<path d="M211.537 73.7765H185.667V74.4352H211.209L223.652 96.5022L224.307 96.1729L211.537 73.7765Z" fill="#F4F6FE"/>
<path d="M183.703 72.459L182.72 74.1058L183.703 75.7526H185.667L186.65 74.1058L185.34 72.459H183.703ZM185.013 74.7645H184.03L183.375 74.1058L184.03 73.1177H185.013L185.667 74.1058L185.013 74.7645Z" fill="#F4F6FE"/>
<path d="M223.652 95.8435L222.67 97.161L223.652 98.8078H225.617L226.599 97.161L225.617 95.5142H223.652V95.8435ZM225.29 98.149H224.307L223.652 97.161L224.307 96.1729H225.29L225.945 97.161L225.29 98.149Z" fill="#F4F6FE"/>
<path d="M146.373 61.5902L145.39 63.237L146.373 64.8838H148.338L149.32 63.237L148.338 61.5902H146.373ZM148.01 64.225H146.7L146.045 63.237L146.7 62.2489H148.01L148.665 63.237L148.01 64.225Z" fill="#F4F6FE"/>
<path d="M174.534 61.5902L173.552 63.237L174.534 64.8838H176.499L177.481 63.237L176.499 61.5902H174.534ZM176.171 64.225H174.861L174.207 63.237L174.861 62.2489H176.171L176.826 63.237L176.171 64.225Z" fill="#F4F6FE"/>
<path d="M173.879 62.9076H148.992V63.5663H173.879V62.9076Z" fill="#F4F6FE"/>
<path d="M62.8715 64.225L61.8892 65.8718L62.8715 67.5186H64.8363L65.8186 65.8718L64.8363 64.225H62.8715ZM64.1814 66.5306H63.199L62.5441 65.5425L63.199 64.5544H64.1814L64.8363 65.5425L64.1814 66.5306Z" fill="#F4F6FE"/>
<path d="M113.3 64.5544L112.317 65.8718L113.3 67.5186H115.264L116.247 65.8718L115.264 64.225H113.3V64.5544ZM114.61 66.8599H113.627L112.972 65.8718L113.627 64.8838H114.61L115.264 65.8718L114.61 66.8599Z" fill="#F4F6FE"/>
<path d="M76.2972 52.0388L64.1814 64.225L64.5088 64.5544L76.6247 52.6975H100.856L113.3 64.8838L113.627 64.5544L101.184 52.0388H76.2972Z" fill="#F4F6FE"/>
<path d="M118.866 188.393L110.68 202.227L118.866 216.06H134.584L142.443 202.227L134.584 188.393H118.866Z" fill="#F4F6FE"/>
<path d="M134.912 188.064H118.539L110.353 202.227L118.539 216.389H134.912L143.098 202.227L134.912 188.064ZM134.584 216.06H118.866L111.008 202.227L118.866 188.393H134.584L142.443 202.227L134.584 216.06Z" fill="#F4F6FE"/>
<path d="M104.458 83.3279L100.529 89.9151L104.458 96.5022H111.99L115.919 89.9151L111.99 83.3279H104.458ZM111.008 94.8554H105.113L102.166 89.9151L105.113 84.9747H111.008L113.955 89.9151L111.008 94.8554Z" fill="#F4F6FE"/>
<path d="M110.68 85.6334H105.768L103.149 89.9151L105.441 94.1967H110.353L112.972 89.9151L110.68 85.6334ZM110.353 93.8674H105.768L103.476 89.9151L105.768 85.9628H110.353L112.645 89.9151L110.353 93.8674Z" fill="#F4F6FE"/>
<path d="M106.423 86.6215L104.458 89.9151L106.423 92.8793H110.025L111.662 89.9151L110.025 86.6215H106.423Z" fill="#F4F6FE"/>
<path d="M91.6877 108.689L92.3426 109.347L105.441 95.8435L104.786 95.1848L91.6877 108.689Z" fill="#F4F6FE"/>
<path d="M165.365 85.304L145.718 119.557L165.365 153.811H204.66L224.307 119.557L204.66 85.304H165.365Z" fill="#F4F6FE"/>
<path d="M162.418 80.0343L139.824 119.557L162.418 159.08H207.934L230.529 119.557L207.934 80.0343H162.418ZM206.297 156.775H163.728L142.443 119.557L163.728 82.6692H206.297L227.582 119.887L206.297 156.775Z" fill="#F4F6FE"/>
<path d="M204.987 84.9747H165.365L145.39 119.557L165.365 154.14H204.987L224.962 119.557L204.987 84.9747ZM204.66 153.811H165.365L145.718 119.557L165.365 85.304H204.66L224.307 119.557L204.66 153.811Z" fill="#F4F6FE"/>
<path d="M76.9521 3.95231L65.1637 24.3726L76.9521 44.7929H100.202L111.99 24.3726L100.202 3.95231H76.9521Z" fill="#F4F6FE"/>
<path d="M100.529 3.62295H76.6247L64.8363 24.3726L76.6247 45.1222H100.529L112.317 24.3726L100.529 3.62295ZM100.202 44.7929H76.6247L64.8363 24.3726L76.6247 3.95231H100.202L111.99 24.3726L100.202 44.7929Z" fill="#F4F6FE"/>
<path d="M74.6599 0L60.5793 24.3726L74.6599 48.7452H102.494L116.574 24.3726L102.494 0H74.6599ZM101.511 46.769H75.6423L62.5441 24.0432L75.6423 1.31744H101.511L114.61 24.0432L101.511 46.769Z" fill="#F4F6FE"/>
<path d="M115.919 183.453L105.113 202.227L115.919 221H137.531L148.338 202.227L137.531 183.453H115.919ZM136.549 219.024H116.902L107.078 201.897L116.902 184.77H136.549L146.373 201.897L136.549 219.024Z" fill="#F4F6FE"/>
<path d="M79.2443 108.359L72.6952 119.557L79.2443 130.756H92.0151L98.5642 119.557L92.0151 108.359H79.2443ZM91.6877 130.097H79.8992L74.005 119.557L79.8992 109.018H91.6877L97.5819 119.557L91.6877 130.097Z" fill="#F4F6FE"/>
<path d="M88.0856 146.565L81.5365 158.092L88.0856 169.62H101.511L108.06 158.092L101.511 146.565H88.0856ZM100.529 167.973H89.068L83.5013 158.092L89.068 148.212H100.529L106.096 158.092L100.529 167.973Z" fill="#F4F6FE"/>
<path d="M110.025 129.768L107.406 134.049L110.025 138.331H114.937L117.557 134.049L114.937 129.768H110.025ZM114.61 138.001H110.353L108.06 134.379L110.025 130.756H114.61L116.574 134.379L114.61 138.001Z" fill="#F4F6FE"/>
<path d="M44.8615 72.459L42.2418 77.3994L44.8615 82.3398H50.4282L53.0479 77.3994L50.4282 72.459H44.8615ZM49.7733 81.0224H45.1889L42.8967 77.07L45.1889 73.1177H49.7733L52.0655 77.07L49.7733 81.0224Z" fill="#F4F6FE"/>
<path d="M46.1713 74.7645L44.8615 77.07L46.1713 79.7049H49.1184L50.4282 77.07L49.1184 74.7645H46.1713Z" fill="#F4F6FE"/>
<path d="M122.796 68.5067L117.557 78.0581L122.796 87.6095H133.602L138.841 78.0581L133.602 68.5067H122.796ZM132.947 86.2921H123.123L118.212 77.7288L123.123 69.1654H132.947L137.859 77.7288L132.947 86.2921Z" fill="#F4F6FE"/>
<path d="M181.083 52.0388L177.809 57.6379L181.083 63.237H187.305L190.579 57.6379L187.305 52.0388H181.083ZM186.322 61.5902H182.065L179.773 57.6379L182.065 53.6855H186.322L188.615 57.6379L186.322 61.5902Z" fill="#F4F6FE"/>
<path d="M252.468 87.6095L249.521 92.2206L252.141 96.8316H257.38L260 92.2206L257.38 87.6095H252.468ZM256.725 95.1848H253.451L251.486 92.2206L253.123 89.2563H256.398L258.035 92.2206L256.725 95.1848Z" fill="#F4F6FE"/>
<path d="M225.617 176.207L220.378 185.429L225.617 194.651H236.423L241.662 185.429L236.423 176.207H225.617ZM235.441 193.334H226.599L222.343 185.759L226.599 178.183H235.441L239.698 185.759L235.441 193.334Z" fill="#F4F6FE"/>
<path d="M220.705 49.7332L216.121 57.6379L220.705 65.8718H229.874L234.458 57.6379L229.874 49.4039H220.705V49.7332ZM229.547 64.8838H221.36L217.103 57.6379L221.36 50.392H229.547L233.804 57.6379L229.547 64.8838Z" fill="#F4F6FE"/>
<path d="M42.8967 76.4113H0V77.07H42.8967V76.4113Z" fill="#F4F6FE"/>
<path d="M140.806 119.228H97.9093V119.887H140.806V119.228Z" fill="#F4F6FE"/>
<path d="M50.7557 80.693L79.2443 109.018L79.8992 108.689L51.4106 80.0343L50.7557 80.693Z" fill="#F4F6FE"/>
<path d="M49.7733 72.459L50.4282 73.1177L74.9874 48.4158L74.6599 47.7571L49.7733 72.459Z" fill="#F4F6FE"/>
<path d="M102.166 48.4158L122.796 69.1654L123.451 68.8361L102.821 47.7571L102.166 48.4158Z" fill="#F4F6FE"/>
<path d="M216.776 57.3085H189.27V57.9672H216.776V57.3085Z" fill="#F4F6FE"/>
<path d="M132.947 68.5067L133.602 69.1654L144.408 57.9672H179.118V57.3085H144.081L132.947 68.5067Z" fill="#F4F6FE"/>
<path d="M229.547 65.5425L252.141 88.5976L252.796 87.9389L230.202 64.8838L229.547 65.5425Z" fill="#F4F6FE"/>
<path d="M206.625 158.751L225.29 177.525L226.599 176.537L207.607 157.434L206.625 158.751Z" fill="#F4F6FE"/>
<path d="M136.549 184.112L137.204 184.77C137.531 184.441 162.091 159.41 163.4 158.422L162.746 157.763C161.436 158.751 137.531 183.124 136.549 184.112Z" fill="#F4F6FE"/>
<path d="M100.529 168.632L116.247 184.441L116.574 184.112L100.856 168.303L100.529 168.632Z" fill="#F4F6FE"/>
<path d="M100.529 146.894L101.184 147.553L110.353 138.331L109.698 137.672L100.529 146.894Z" fill="#F4F6FE"/>
<path d="M55.995 142.942L52.0655 149.529L55.995 156.116H63.5264L67.4559 149.529L63.5264 142.942H55.995ZM62.8715 154.469H56.9773L54.0302 149.529L56.9773 144.589H62.8715L65.8186 149.529L62.8715 154.469Z" fill="#F4F6FE"/>
<path d="M62.2166 145.247H57.3048L54.6851 149.529L56.9773 153.811H62.2166L64.8363 149.529L62.2166 145.247ZM62.2166 153.481H57.6322L55.34 149.529L57.6322 145.577H62.2166L64.5088 149.529L62.2166 153.481Z" fill="#F4F6FE"/>
<path d="M57.9597 146.565L56.3224 149.529L57.9597 152.823H61.5617L63.5264 149.529L61.5617 146.565H57.9597Z" fill="#F4F6FE"/>
<path d="M25.5416 98.8078L16.0453 115.605L25.5416 132.402H44.8615L54.3577 115.605L44.8615 98.8078H25.5416ZM44.534 131.414H26.1965L17.0277 115.276L26.1965 99.4665H44.534L53.7028 115.605L44.534 131.414Z" fill="#F4F6FE"/>
<path d="M44.534 132.073L56.3224 144.259L56.9773 143.601L44.8615 131.744L44.534 132.073Z" fill="#F4F6FE"/>
</svg>
