<svg width="279" height="446" viewBox="0 0 279 446" fill="none" xmlns="http://www.w3.org/2000/svg">
<path d="M193 125V175L236.3 200L279.6 175V125L236.3 100L193 125Z" fill="#030061"/>
<path d="M193 125V175L236.3 200L279.6 175V125L236.3 100L193 125Z" fill="#030061"/>
<path d="M193 270V320L236.3 345L279.6 320V270L236.3 245L193 270Z" fill="#030061"/>
<path d="M193 270V320L236.3 345L279.6 320V270L236.3 245L193 270Z" fill="#030061"/>
<path d="M106 187V237L149.3 262L192.6 237V187L149.3 162L106 187Z" fill="#030061"/>
<path d="M106 187V237L149.3 262L192.6 237V187L149.3 162L106 187Z" fill="#030061"/>
<path d="M19.1992 118.801V168.801L62.4992 193.801L105.799 168.801V118.801L62.4992 93.8008L19.1992 118.801Z" fill="#030061"/>
<path d="M19.1992 118.801V168.801L62.4992 193.801L105.799 168.801V118.801L62.4992 93.8008L19.1992 118.801Z" fill="#030061"/>
</svg>
