<svg width="319" height="292" viewBox="0 0 319 292" fill="none" xmlns="http://www.w3.org/2000/svg">
<path d="M105.479 174H36.7849L2.45669 231.708L36.7849 289.416H105.479L139.808 231.708L105.479 174Z" fill="#030061"/>
<path d="M103.023 57.3402H34.3282L0 115.048L34.3282 172.756H103.023L137.351 115.048L103.023 57.3402Z" fill="#030061"/>
<path d="M206.984 117.621H138.29L103.962 175.329L138.29 233.037H206.984L241.313 175.329L206.984 117.621Z" fill="#030061"/>
<path d="M208.502 0H139.808L105.479 57.7078L139.808 115.416H208.502L242.83 57.7078L208.502 0Z" fill="#030061"/>
<path d="M150.942 252.117H116.983L99.9766 223.559L116.983 195H150.942L167.948 223.559L150.942 252.117ZM118.519 249.545H149.405L164.875 223.559L149.405 197.573H118.519L103.049 223.559L118.519 249.545Z" fill="#0293ED"/>
<path opacity="0.8" d="M279.282 123.878C300.692 123.878 318.048 107.041 318.048 86.2725C318.048 65.5036 300.692 48.667 279.282 48.667C257.872 48.667 240.516 65.5036 240.516 86.2725C240.516 107.041 257.872 123.878 279.282 123.878Z" fill="url(#paint0_radial_252_1318)"/>
<path d="M281.518 31H247.824L230.977 59.3015L247.824 87.6544H281.518L298.365 59.3015L281.518 31Z" fill="#43A5FF"/>
<defs>
<radialGradient id="paint0_radial_252_1318" cx="0" cy="0" r="1" gradientUnits="userSpaceOnUse" gradientTransform="translate(279.326 86.5803) scale(34.6922 32.9469)">
<stop stop-color="#7D7D74"/>
<stop offset="0.0305412" stop-color="#818179"/>
<stop offset="0.6995" stop-color="white" stop-opacity="0"/>
<stop offset="1" stop-color="#F4F6FE" stop-opacity="0"/>
</radialGradient>
</defs>
</svg>
