<svg width="461" height="436" viewBox="0 0 461 436" fill="none" xmlns="http://www.w3.org/2000/svg">
<path d="M135.39 134.265L124.577 152.93L135.39 171.595H157.018L167.831 152.93L157.018 134.265H135.39ZM156.417 170.39H136.592L126.379 152.93L136.592 135.469H156.417L166.63 152.93L156.417 170.39Z" fill="#F4F6FE"/>
<path d="M233.314 207.72L230.911 211.332L233.314 214.945H237.519L239.922 211.332L237.519 207.72H233.314ZM236.918 214.343H233.914L232.112 211.934L233.914 209.526H236.918L238.72 211.934L236.918 214.343Z" fill="#F4F6FE"/>
<path d="M169.033 207.72L166.63 211.332L169.033 214.945H173.238L175.641 211.332L173.238 207.72H169.033ZM172.637 214.343H169.633L167.831 211.934L169.633 209.526H172.637L174.44 211.934L172.637 214.343Z" fill="#F4F6FE"/>
<path d="M232.112 210.73H175.04V211.934H232.112V210.73Z" fill="#F4F6FE"/>
<path d="M233.314 222.17L230.911 225.782L233.314 229.395H237.519L239.922 225.782L237.519 222.17H233.314ZM236.918 228.793H233.914L232.112 226.384L233.914 223.976H236.918L238.72 226.384L236.918 228.793Z" fill="#F4F6FE"/>
<path d="M169.033 222.17L166.63 225.782L169.033 229.395H173.238L175.641 225.782L173.238 222.17H169.033ZM172.637 228.793H169.633L167.831 226.384L169.633 223.976H172.637L174.44 226.384L172.637 228.793Z" fill="#F4F6FE"/>
<path d="M232.112 225.782H175.04V226.987H232.112V225.782Z" fill="#F4F6FE"/>
<path d="M131.185 186.647L129.984 190.861L132.987 193.872L137.193 192.668L138.394 188.453L135.39 185.443L131.185 186.647ZM136.592 192.066L133.588 192.668L131.185 190.259L131.786 187.249L134.79 186.647L137.193 189.055L136.592 192.066Z" fill="#F4F6FE"/>
<path d="M86.1285 140.888L84.9269 145.103L87.9307 148.113L92.136 146.909L93.3375 142.694L90.3338 139.684L86.1285 140.888ZM90.9345 146.307L87.9307 146.909L86.1285 145.103L86.7292 142.092L89.733 141.49L92.136 143.899L90.9345 146.307Z" fill="#F4F6FE"/>
<path d="M90.9345 147.511L131.786 187.851L132.387 186.647L92.136 146.307L90.9345 147.511Z" fill="#F4F6FE"/>
<path d="M-9.99244 146.307L-12.3955 149.92L-9.99244 153.532H-5.78715L-3.38413 149.92L-5.78715 146.307H-9.99244ZM-6.38791 152.93H-9.39169L-11.194 150.522L-9.39169 148.113H-6.38791L-4.58564 150.522L-6.38791 152.93Z" fill="#F4F6FE"/>
<path d="M54.2884 146.307L51.8854 149.92L54.2884 153.532H58.4937L60.8967 149.92L58.4937 146.307H54.2884ZM57.8929 152.93H54.8892L53.0869 150.522L54.8892 148.113H57.8929L59.6952 150.522L57.8929 152.93Z" fill="#F4F6FE"/>
<path d="M53.0869 149.317H-3.98489V150.522H53.0869V149.317Z" fill="#F4F6FE"/>
<path d="M372.088 134.867H324.628V136.072H371.487L394.316 176.411L395.518 175.809L372.088 134.867Z" fill="#F4F6FE"/>
<path d="M321.024 132.459L319.222 135.469L321.024 138.48H324.628L326.431 135.469L324.028 132.459H321.024ZM323.427 136.674H321.625L320.423 135.469L321.625 133.663H323.427L324.628 135.469L323.427 136.674Z" fill="#F4F6FE"/>
<path d="M394.316 175.207L392.514 177.616L394.316 180.626H397.921L399.723 177.616L397.921 174.605H394.316V175.207ZM397.32 179.422H395.518L394.316 177.616L395.518 175.809H397.32L398.521 177.616L397.32 179.422Z" fill="#F4F6FE"/>
<path d="M252.538 112.59L250.736 115.601L252.538 118.611H256.142L257.945 115.601L256.142 112.59H252.538ZM255.542 117.407H253.139L251.937 115.601L253.139 113.794H255.542L256.743 115.601L255.542 117.407Z" fill="#F4F6FE"/>
<path d="M304.203 112.59L302.4 115.601L304.203 118.611H307.807L309.61 115.601L307.807 112.59H304.203ZM307.207 117.407H304.804L303.602 115.601L304.804 113.794H307.207L308.408 115.601L307.207 117.407Z" fill="#F4F6FE"/>
<path d="M303.001 114.999H257.344V116.203H303.001V114.999Z" fill="#F4F6FE"/>
<path d="M99.3451 117.407L97.5428 120.417L99.3451 123.428H102.95L104.752 120.417L102.95 117.407H99.3451ZM101.748 121.621H99.9458L98.7443 119.815L99.9458 118.009H101.748L102.95 119.815L101.748 121.621Z" fill="#F4F6FE"/>
<path d="M191.861 118.009L190.059 120.417L191.861 123.428H195.466L197.268 120.417L195.466 117.407H191.861V118.009ZM194.264 122.224H192.462L191.261 120.417L192.462 118.611H194.264L195.466 120.417L194.264 122.224Z" fill="#F4F6FE"/>
<path d="M123.976 95.1297L101.748 117.407L102.349 118.009L124.577 96.3338H169.033L191.861 118.611L192.462 118.009L169.633 95.1297H123.976Z" fill="#F4F6FE"/>
<path d="M202.074 344.393L187.055 369.681L202.074 394.969H230.911L245.329 369.681L230.911 344.393H202.074Z" fill="#F4F6FE"/>
<path d="M231.511 343.791H201.474L186.455 369.681L201.474 395.571H231.511L246.53 369.681L231.511 343.791ZM230.911 394.969H202.074L187.656 369.681L202.074 344.393H230.911L245.329 369.681L230.911 394.969Z" fill="#F4F6FE"/>
<path d="M175.641 152.328L168.432 164.37L175.641 176.411H189.458L196.668 164.37L189.458 152.328H175.641ZM187.656 173.401H176.843L171.436 164.37L176.843 155.338H187.656L193.063 164.37L187.656 173.401Z" fill="#F4F6FE"/>
<path d="M187.055 156.542H178.044L173.238 164.37L177.443 172.197H186.455L191.261 164.37L187.055 156.542ZM186.455 171.595H178.044L173.839 164.37L178.044 157.145H186.455L190.66 164.37L186.455 171.595Z" fill="#F4F6FE"/>
<path d="M179.246 158.349L175.641 164.37L179.246 169.788H185.854L188.858 164.37L185.854 158.349H179.246Z" fill="#F4F6FE"/>
<path d="M152.212 198.689L153.413 199.893L177.443 175.207L176.242 174.003L152.212 198.689Z" fill="#F4F6FE"/>
<path d="M287.382 155.94L251.336 218.557L287.382 281.174H359.472L395.518 218.557L359.472 155.94H287.382Z" fill="#F4F6FE"/>
<path d="M281.975 146.307L240.523 218.557L281.975 290.808H365.48L406.932 218.557L365.48 146.307H281.975ZM362.476 286.593H284.378L245.329 218.557L284.378 151.124H362.476L401.525 219.159L362.476 286.593Z" fill="#F4F6FE"/>
<path d="M360.073 155.338H287.382L250.736 218.557L287.382 281.776H360.073L396.719 218.557L360.073 155.338ZM359.472 281.174H287.382L251.336 218.557L287.382 155.94H359.472L395.518 218.557L359.472 281.174Z" fill="#F4F6FE"/>
<path d="M125.178 7.22504L103.55 44.5544L125.178 81.8838H167.831L189.458 44.5544L167.831 7.22504H125.178Z" fill="#F4F6FE"/>
<path d="M168.432 6.62295H124.577L102.95 44.5544L124.577 82.4858H168.432L190.059 44.5544L168.432 6.62295ZM167.831 81.8838H124.577L102.95 44.5544L124.577 7.22504H167.831L189.458 44.5544L167.831 81.8838Z" fill="#F4F6FE"/>
<path d="M120.972 0L95.1398 44.5544L120.972 89.1088H172.037L197.869 44.5544L172.037 0H120.972ZM170.234 85.4963H122.775L98.7443 43.9523L122.775 2.40835H170.234L194.264 43.9523L170.234 85.4963Z" fill="#F4F6FE"/>
<path d="M196.668 335.362L176.843 369.681L196.668 404H236.317L256.142 369.681L236.317 335.362H196.668ZM234.515 400.387H198.47L180.447 369.079L198.47 337.77H234.515L252.538 369.079L234.515 400.387Z" fill="#F4F6FE"/>
<path d="M129.383 198.086L117.368 218.557L129.383 239.028H152.812L164.827 218.557L152.812 198.086H129.383ZM152.212 237.824H130.584L119.771 218.557L130.584 199.291H152.212L163.025 218.557L152.212 237.824Z" fill="#F4F6FE"/>
<path d="M145.603 267.928L133.588 289.001L145.603 310.075H170.234L182.249 289.001L170.234 267.928H145.603ZM168.432 307.064H147.406L137.193 289.001L147.406 270.939H168.432L178.645 289.001L168.432 307.064Z" fill="#F4F6FE"/>
<path d="M185.854 237.222L181.048 245.049L185.854 252.876H194.865L199.671 245.049L194.865 237.222H185.854ZM194.264 252.274H186.455L182.249 245.651L185.854 239.028H194.264L197.869 245.651L194.264 252.274Z" fill="#F4F6FE"/>
<path d="M66.3035 132.459L61.4975 141.49L66.3035 150.522H76.5164L81.3224 141.49L76.5164 132.459H66.3035ZM75.3149 148.113H66.9043L62.699 140.888L66.9043 133.663H75.3149L79.5201 140.888L75.3149 148.113Z" fill="#F4F6FE"/>
<path d="M68.7066 136.674L66.3035 140.888L68.7066 145.705H74.1133L76.5164 140.888L74.1133 136.674H68.7066Z" fill="#F4F6FE"/>
<path d="M209.283 125.234L199.671 142.694L209.283 160.155H229.108L238.72 142.694L229.108 125.234H209.283ZM227.907 157.747H209.884L200.873 142.092L209.884 126.438H227.907L236.918 142.092L227.907 157.747Z" fill="#F4F6FE"/>
<path d="M316.218 95.1297L310.21 105.365L316.218 115.601H327.632L333.64 105.365L327.632 95.1297H316.218ZM325.83 112.59H318.02L313.815 105.365L318.02 98.1401H325.83L330.035 105.365L325.83 112.59Z" fill="#F4F6FE"/>
<path d="M447.183 160.155L441.776 168.584L446.582 177.013H456.194L461 168.584L456.194 160.155H447.183ZM454.992 174.003H448.985L445.38 168.584L448.384 163.165H454.392L457.395 168.584L454.992 174.003Z" fill="#F4F6FE"/>
<path d="M397.921 322.116L388.309 338.975L397.921 355.833H417.746L427.358 338.975L417.746 322.116H397.921ZM415.943 353.425H399.723L391.913 339.577L399.723 325.729H415.943L423.753 339.577L415.943 353.425Z" fill="#F4F6FE"/>
<path d="M388.909 90.9151L380.499 105.365L388.909 120.417H405.73L414.141 105.365L405.73 90.313H388.909V90.9151ZM405.13 118.611H390.111L382.301 105.365L390.111 92.1192H405.13L412.94 105.365L405.13 118.611Z" fill="#F4F6FE"/>
<path d="M62.699 139.684H-16V140.888H62.699V139.684Z" fill="#F4F6FE"/>
<path d="M242.325 217.955H163.626V219.159H242.325V217.955Z" fill="#F4F6FE"/>
<path d="M77.1171 147.511L129.383 199.291L130.584 198.689L78.3186 146.307L77.1171 147.511Z" fill="#F4F6FE"/>
<path d="M75.3149 132.459L76.5164 133.663L121.573 88.5067L120.972 87.3025L75.3149 132.459Z" fill="#F4F6FE"/>
<path d="M171.436 88.5067L209.283 126.438L210.485 125.836L172.637 87.3025L171.436 88.5067Z" fill="#F4F6FE"/>
<path d="M381.7 104.763H331.237V105.967H381.7V104.763Z" fill="#F4F6FE"/>
<path d="M227.907 125.234L229.108 126.438L248.933 105.967H312.613V104.763H248.332L227.907 125.234Z" fill="#F4F6FE"/>
<path d="M405.13 119.815L446.582 161.961L447.783 160.757L406.331 118.611L405.13 119.815Z" fill="#F4F6FE"/>
<path d="M363.077 290.206L397.32 324.525L399.723 322.718L364.879 287.797L363.077 290.206Z" fill="#F4F6FE"/>
<path d="M234.515 336.566L235.717 337.77C236.317 337.168 281.374 291.41 283.777 289.604L282.576 288.399C280.173 290.206 236.317 334.76 234.515 336.566Z" fill="#F4F6FE"/>
<path d="M168.432 308.268L197.268 337.168L197.869 336.566L169.033 307.666L168.432 308.268Z" fill="#F4F6FE"/>
<path d="M168.432 268.531L169.633 269.735L186.455 252.876L185.253 251.672L168.432 268.531Z" fill="#F4F6FE"/>
<path d="M86.7292 261.306L79.5201 273.347L86.7292 285.389H100.547L107.756 273.347L100.547 261.306H86.7292ZM99.3451 282.379H88.5315L83.1247 273.347L88.5315 264.316H99.3451L104.752 273.347L99.3451 282.379Z" fill="#F4F6FE"/>
<path d="M98.1436 265.52H89.1322L84.3262 273.347L88.5315 281.174H98.1436L102.95 273.347L98.1436 265.52ZM98.1436 280.572H89.733L85.5277 273.347L89.733 266.122H98.1436L102.349 273.347L98.1436 280.572Z" fill="#F4F6FE"/>
<path d="M90.3338 267.928L87.33 273.347L90.3338 279.368H96.9421L100.547 273.347L96.9421 267.928H90.3338Z" fill="#F4F6FE"/>
<path d="M30.8589 180.626L13.437 211.332L30.8589 242.039H66.3035L83.7254 211.332L66.3035 180.626H30.8589ZM65.7028 240.232H32.0605L15.2393 210.73L32.0605 181.83H65.7028L82.5239 211.332L65.7028 240.232Z" fill="#F4F6FE"/>
<path d="M65.7028 241.437L87.33 263.714L88.5315 262.51L66.3035 240.835L65.7028 241.437Z" fill="#F4F6FE"/>
<path d="M99.2825 324.182L128.966 374.5L99.2825 424.818H41.5198L11.8362 374.5L41.5198 324.182H99.2825Z" fill="#F4F6FE"/>
<path d="M34.2994 313L-1 374.5L34.2994 436H105.701L141 374.5L105.701 313H34.2994ZM6.22034 374.5L38.3107 318.591H102.492L134.582 374.5L102.492 430.409H38.3107L6.22034 374.5Z" fill="#F4F6FE"/>
<path d="M40.7175 323.383L11.0339 374.5L40.7175 425.617H100.085L129.768 374.5L100.085 323.383H40.7175ZM11.8362 374.5L40.7175 324.182H99.2825L128.164 374.5L99.2825 424.818H41.5198L11.8362 374.5Z" fill="#F4F6FE"/>
</svg>
