<svg width="627" height="410" viewBox="0 0 627 410" fill="none" xmlns="http://www.w3.org/2000/svg">
<path d="M121.994 122.571L92.5793 71.3051L132.422 1.82506L129.285 0L89.46 69.4071H30.5031L0 122.571L30.5031 175.735H91.4911L121.994 122.571ZM32.5886 172.085L4.18919 122.571L32.5886 73.0572H89.3512L89.4238 73.0937L117.805 122.553L89.4056 172.067H32.5886V172.085Z" fill="#0293ED" fill-opacity="0.05"/>
<path d="M232.509 186.539L202.006 239.704L232.509 292.868H293.497L324 239.704L293.497 186.539H232.509ZM291.393 289.199H234.595L206.195 239.704L234.595 190.19H291.393L319.793 239.704L291.393 289.199Z" fill="#0293ED" fill-opacity="0.05"/>
<path d="M232.509 303.672L202.006 356.836L232.509 410H293.497L324 356.836L293.497 303.672H232.509ZM291.393 406.332H234.595L206.195 356.836L234.595 307.322H291.393L319.793 356.836L291.393 406.332Z" fill="#0293ED" fill-opacity="0.05"/>
<path d="M100.994 63.9136L131.497 117.078H192.485L222.988 63.9136L192.485 10.7679H131.497L100.994 63.9136ZM190.4 14.418L218.799 63.9319L190.4 113.446H133.601L105.183 63.9136L133.601 14.418H190.4Z" fill="#0293ED" fill-opacity="0.05"/>
<path d="M222.988 181.046L192.485 127.882H131.497L100.994 181.046L130.463 232.403L44.9204 381.511L48.0578 383.336L133.601 234.21H192.467L222.988 181.046ZM133.691 230.56L133.564 230.487L105.183 181.046L133.583 131.532H190.381L218.781 181.046L190.381 230.56H133.691Z" fill="#0293ED" fill-opacity="0.05"/>
<path d="M333.503 127.882L303 181.046L333.503 234.21H394.491L424.994 181.046L394.491 127.882H333.503ZM392.405 230.56H335.607L307.189 181.046L335.588 131.532H392.387L420.787 181.046L392.405 230.56Z" fill="#0293ED" fill-opacity="0.05"/>
<path d="M596.497 234.21L627 181.046L596.497 127.882H535.509L505.006 181.046L534.439 232.349L476.697 333.019L479.834 334.844L537.558 234.21H596.497ZM537.594 131.532H594.393L622.793 181.046L594.393 230.56H537.594L509.195 181.046L537.594 131.532Z" fill="#0293ED" fill-opacity="0.05"/>
<path d="M535.509 245.014L505.006 298.178L535.509 351.343H596.497L627 298.178L596.497 245.014H535.509ZM594.411 347.674H537.613L509.213 298.16L537.613 248.646H594.411L622.811 298.16L594.411 347.674Z" fill="#0293ED" fill-opacity="0.05"/>
</svg>
