<svg width="158" height="103" viewBox="0 0 158 103" fill="none" xmlns="http://www.w3.org/2000/svg">
<g filter="url(#filter0_i_67_1549)">
<path d="M81.7008 4.10156H132.101L157.301 47.8016L132.101 91.5016H81.7008L56.5008 47.8016L81.7008 4.10156Z" fill="#EEF2FE"/>
</g>
<path d="M51.0992 102.2C22.8775 102.2 -0.000785828 79.3217 -0.000785828 51.1C-0.000785828 22.8782 22.8775 0 51.0992 0C79.321 0 102.199 22.8782 102.199 51.1C102.199 79.3217 79.321 102.2 51.0992 102.2Z" fill="url(#paint0_radial_67_1549)"/>
<path d="M42.4023 1.80078H74.4023L90.4023 29.5008L74.4023 57.2008H42.4023L26.4023 29.5008L42.4023 1.80078Z" fill="url(#paint1_linear_67_1549)"/>
<path d="M42.4023 1.80078H74.4023L90.4023 29.5008L74.4023 57.2008H42.4023L26.4023 29.5008L42.4023 1.80078Z" fill="url(#paint2_linear_67_1549)"/>
<defs>
<filter id="filter0_i_67_1549" x="56.5007" y="4.10156" width="100.8" height="91.4" filterUnits="userSpaceOnUse" color-interpolation-filters="sRGB">
<feFlood flood-opacity="0" result="BackgroundImageFix"/>
<feBlend mode="normal" in="SourceGraphic" in2="BackgroundImageFix" result="shape"/>
<feColorMatrix in="SourceAlpha" type="matrix" values="0 0 0 0 0 0 0 0 0 0 0 0 0 0 0 0 0 0 127 0" result="hardAlpha"/>
<feOffset dy="4"/>
<feGaussianBlur stdDeviation="2"/>
<feComposite in2="hardAlpha" operator="arithmetic" k2="-1" k3="1"/>
<feColorMatrix type="matrix" values="0 0 0 0 0 0 0 0 0 0 0 0 0 0 0 0 0 0 0.15 0"/>
<feBlend mode="normal" in2="shape" result="effect1_innerShadow_67_1549"/>
</filter>
<radialGradient id="paint0_radial_67_1549" cx="0" cy="0" r="1" gradientUnits="userSpaceOnUse" gradientTransform="translate(51.0405 51.5182) rotate(180) scale(45.7299 44.7696)">
<stop stop-color="#7D7D74"/>
<stop offset="0.0305412" stop-color="#818179"/>
<stop offset="0.6995" stop-color="#DFE2F1"/>
<stop offset="1" stop-color="#F4F6FE" stop-opacity="0"/>
</radialGradient>
<linearGradient id="paint1_linear_67_1549" x1="58.4356" y1="-37.1991" x2="58.4356" y2="286.839" gradientUnits="userSpaceOnUse">
<stop stop-color="#4A4A4A"/>
<stop offset="1" stop-color="#1E1E1C"/>
</linearGradient>
<linearGradient id="paint2_linear_67_1549" x1="58.375" y1="48.0303" x2="58.375" y2="10.9713" gradientUnits="userSpaceOnUse">
<stop stop-color="#CBCFE0"/>
<stop offset="1" stop-color="#DDE1F1"/>
</linearGradient>
</defs>
</svg>
