<svg width="319" height="292" viewBox="0 0 319 292" fill="none" xmlns="http://www.w3.org/2000/svg">
<path d="M212.568 174H281.263L315.591 231.708L281.263 289.416H212.568L178.24 231.708L212.568 174Z" fill="#030061"/>
<path d="M215.025 57.3402H283.72L318.048 115.048L283.72 172.756H215.025L180.697 115.048L215.025 57.3402Z" fill="#030061"/>
<path d="M111.063 117.621H179.758L214.086 175.329L179.758 233.037H111.063L76.7352 175.329L111.063 117.621Z" fill="#030061"/>
<path d="M109.546 0H178.24L212.568 57.7078L178.24 115.416H109.546L75.2176 57.7078L109.546 0Z" fill="#030061"/>
<path d="M167.106 252.117H201.065L218.071 223.559L201.065 195H167.106L150.1 223.559L167.106 252.117ZM199.529 249.545H168.642L153.173 223.559L168.642 197.573H199.529L214.999 223.559L199.529 249.545Z" fill="#0293ED"/>
<path opacity="0.8" d="M38.7661 123.878C17.3562 123.878 -3.8147e-05 107.041 -3.8147e-05 86.2725C-3.8147e-05 65.5036 17.3562 48.667 38.7661 48.667C60.176 48.667 77.5322 65.5036 77.5322 86.2725C77.5322 107.041 60.176 123.878 38.7661 123.878Z" fill="url(#paint0_radial_252_1095)"/>
<path d="M36.5299 31H70.2242L87.0713 59.3015L70.2242 87.6544H36.5299L19.6828 59.3015L36.5299 31Z" fill="#43A5FF"/>
<defs>
<radialGradient id="paint0_radial_252_1095" cx="0" cy="0" r="1" gradientUnits="userSpaceOnUse" gradientTransform="translate(38.7216 86.5803) rotate(180) scale(34.6922 32.9469)">
<stop stop-color="#7D7D74"/>
<stop offset="0.0305412" stop-color="#818179"/>
<stop offset="0.6995" stop-color="white" stop-opacity="0"/>
<stop offset="1" stop-color="#F4F6FE" stop-opacity="0"/>
</radialGradient>
</defs>
</svg>
