<svg width="131" height="55" viewBox="0 0 131 55" fill="none" xmlns="http://www.w3.org/2000/svg">
<path d="M44.1031 36.2442C44.1031 36.1175 44.1031 36.1175 44.1031 35.9908H37.2398C37.2398 36.1175 37.3669 36.1175 37.3669 36.2442C38.0024 37.2581 38.3837 38.2719 38.3837 39.6659C38.3837 46.0023 32.6643 49.1705 23.6403 49.1705C14.235 49.1705 6.73621 46.0023 6.35492 38.2719H0C0.76259 47.9032 7.3717 55 23.259 55C36.4772 54.8733 44.4844 49.424 44.4844 39.4124C44.4844 38.2719 44.3573 37.2581 44.1031 36.2442ZM20.9712 29.4009V23.4447C15.8873 22.1774 11.4388 20.9101 9.15108 18.5023C8.13429 17.4885 7.6259 16.2212 7.6259 14.7005C7.6259 11.1521 9.78657 5.57604 21.8609 5.57604C31.6475 5.57604 36.223 9.88479 36.8585 15.2074H43.0863C42.705 7.35023 36.223 0 21.8609 0C8.38849 0 1.65228 6.08295 1.65228 14.8272C1.65228 16.2212 1.90647 17.4885 2.28777 18.629C4.57554 25.0922 12.8369 27.5 20.9712 29.4009Z" fill="#0293ED"/>
<path d="M99.7722 36.2442C97.4844 44.3548 89.6043 48.917 81.47 48.917C71.8105 48.917 65.0743 43.7212 62.2782 36.2442H55.7962C58.8465 47.1429 67.8705 54.8733 80.9616 54.8733C90.7482 54.8733 97.1031 49.9309 100.408 44.735V54.2396H106V36.2442H99.7722ZM81.0887 0C68.2518 0 59.1007 7.73041 55.9233 18.5023H62.2782C65.2014 10.8986 71.9376 5.82949 81.5971 5.82949C89.8585 5.82949 95.705 9.37788 98.8825 15.2074H105.492C101.552 6.20968 92.6547 0 81.0887 0Z" fill="#0293ED"/>
<path d="M28.406 32.136C27.2953 32.136 26.3943 31.9887 25.703 31.694C25.0117 31.388 24.4903 30.9687 24.139 30.436C23.799 29.9033 23.6007 29.3027 23.544 28.634H24.87C24.904 29.178 25.0853 29.62 25.414 29.96C25.7427 30.2887 26.1733 30.5323 26.706 30.691C27.25 30.8497 27.845 30.929 28.491 30.929C29.443 30.929 30.1967 30.7647 30.752 30.436C31.3073 30.096 31.585 29.5973 31.585 28.94C31.585 28.5433 31.4433 28.226 31.16 27.988C30.888 27.7387 30.5197 27.5347 30.055 27.376C29.6017 27.2173 29.103 27.0757 28.559 26.951C28.015 26.815 27.4653 26.6733 26.91 26.526C26.366 26.3787 25.8617 26.1917 25.397 25.965C24.9437 25.7383 24.5753 25.4493 24.292 25.098C24.02 24.7353 23.884 24.2763 23.884 23.721C23.884 22.803 24.2353 22.055 24.938 21.477C25.652 20.899 26.7117 20.61 28.117 20.61C29.1143 20.61 29.936 20.763 30.582 21.069C31.228 21.3637 31.7097 21.7547 32.027 22.242C32.3557 22.7293 32.537 23.2563 32.571 23.823H31.262C31.194 23.2563 30.9107 22.7803 30.412 22.395C29.9133 21.9983 29.1483 21.8 28.117 21.8C27.4823 21.8 26.9667 21.8623 26.57 21.987C26.1733 22.1117 25.8673 22.276 25.652 22.48C25.448 22.6727 25.3063 22.8767 25.227 23.092C25.159 23.3073 25.125 23.5113 25.125 23.704C25.125 24.078 25.261 24.384 25.533 24.622C25.8163 24.8487 26.1847 25.0413 26.638 25.2C27.1027 25.3473 27.6127 25.4833 28.168 25.608C28.7233 25.7327 29.273 25.8743 29.817 26.033C30.3723 26.1803 30.8767 26.373 31.33 26.611C31.7947 26.8377 32.163 27.1323 32.435 27.495C32.7183 27.8577 32.86 28.3223 32.86 28.889C32.86 29.9317 32.4633 30.7363 31.67 31.303C30.8767 31.8583 29.7887 32.136 28.406 32.136ZM34.564 35.366V23.5H35.839V24.86C36.1563 24.3953 36.5643 24.0327 37.063 23.772C37.573 23.5 38.1793 23.364 38.882 23.364C39.7093 23.364 40.429 23.5623 41.041 23.959C41.6643 24.3443 42.146 24.8713 42.486 25.54C42.826 26.1973 42.996 26.934 42.996 27.75C42.996 28.5547 42.826 29.2913 42.486 29.96C42.146 30.6287 41.6643 31.1613 41.041 31.558C40.429 31.9433 39.7093 32.136 38.882 32.136C38.1793 32.136 37.573 32 37.063 31.728C36.5643 31.4447 36.1563 31.0763 35.839 30.623V35.366H34.564ZM38.712 30.98C39.3467 30.98 39.885 30.8327 40.327 30.538C40.7803 30.2433 41.126 29.8523 41.364 29.365C41.602 28.8663 41.721 28.328 41.721 27.75C41.721 27.1607 41.602 26.6223 41.364 26.135C41.126 25.6477 40.7803 25.2567 40.327 24.962C39.885 24.6673 39.3467 24.52 38.712 24.52C38.0887 24.52 37.556 24.6673 37.114 24.962C36.672 25.2567 36.3377 25.6477 36.111 26.135C35.8843 26.6223 35.771 27.1607 35.771 27.75C35.771 28.328 35.8843 28.8663 36.111 29.365C36.3377 29.8523 36.672 30.2433 37.114 30.538C37.556 30.8327 38.0887 30.98 38.712 30.98ZM48.2613 32.136C47.434 32.136 46.7087 31.9433 46.0853 31.558C45.4733 31.1613 44.9973 30.6287 44.6573 29.96C44.3173 29.2913 44.1473 28.5547 44.1473 27.75C44.1473 26.934 44.3173 26.1973 44.6573 25.54C44.9973 24.8713 45.4733 24.3443 46.0853 23.959C46.7087 23.5623 47.434 23.364 48.2613 23.364C48.964 23.364 49.5647 23.5 50.0633 23.772C50.5733 24.044 50.987 24.4123 51.3043 24.877V23.5H52.5793V32H51.3043V30.64C50.987 31.0933 50.5733 31.456 50.0633 31.728C49.5647 32 48.964 32.136 48.2613 32.136ZM48.4313 30.98C49.066 30.98 49.5987 30.8327 50.0293 30.538C50.4713 30.2433 50.8057 29.8523 51.0323 29.365C51.259 28.8663 51.3723 28.328 51.3723 27.75C51.3723 27.1607 51.259 26.6223 51.0323 26.135C50.8057 25.6477 50.4713 25.2567 50.0293 24.962C49.5987 24.6673 49.066 24.52 48.4313 24.52C47.808 24.52 47.2697 24.6673 46.8163 24.962C46.363 25.2567 46.0173 25.6477 45.7793 26.135C45.5413 26.6223 45.4223 27.1607 45.4223 27.75C45.4223 28.328 45.5413 28.8663 45.7793 29.365C46.0173 29.8523 46.363 30.2433 46.8163 30.538C47.2697 30.8327 47.808 30.98 48.4313 30.98ZM54.7847 32V23.5H56.0597V24.826C56.3657 24.418 56.7397 24.0723 57.1817 23.789C57.6237 23.5057 58.1904 23.364 58.8817 23.364C59.471 23.364 60.0207 23.5057 60.5307 23.789C61.052 24.061 61.4714 24.4747 61.7887 25.03C62.1174 25.574 62.2817 26.2483 62.2817 27.053V32H61.0067V27.087C61.0067 26.3163 60.7857 25.6987 60.3437 25.234C59.9017 24.758 59.3294 24.52 58.6267 24.52C58.1507 24.52 57.72 24.6277 57.3347 24.843C56.9494 25.0583 56.6377 25.3643 56.3997 25.761C56.173 26.1463 56.0597 26.594 56.0597 27.104V32H54.7847ZM68.3066 35.502C67.2413 35.502 66.3743 35.2697 65.7056 34.805C65.0369 34.3517 64.5836 33.7567 64.3456 33.02H65.7566C65.9266 33.4393 66.2213 33.7623 66.6406 33.989C67.0599 34.227 67.5926 34.346 68.2386 34.346C69.2133 34.346 69.9216 34.1137 70.3636 33.649C70.8169 33.1957 71.0436 32.5327 71.0436 31.66V30.487C70.7263 30.9403 70.3126 31.3087 69.8026 31.592C69.3039 31.864 68.7033 32 68.0006 32C67.1733 32 66.4479 31.813 65.8246 31.439C65.2126 31.0537 64.7366 30.5323 64.3966 29.875C64.0566 29.2177 63.8866 28.4867 63.8866 27.682C63.8866 26.866 64.0566 26.135 64.3966 25.489C64.7366 24.8317 65.2126 24.316 65.8246 23.942C66.4479 23.5567 67.1733 23.364 68.0006 23.364C68.7033 23.364 69.3039 23.5 69.8026 23.772C70.3126 24.0327 70.7263 24.3953 71.0436 24.86V23.5H72.3186V31.745C72.3186 32.9577 71.9673 33.887 71.2646 34.533C70.5733 35.179 69.5873 35.502 68.3066 35.502ZM68.1706 30.844C68.7939 30.844 69.3209 30.7023 69.7516 30.419C70.1936 30.1357 70.5279 29.756 70.7546 29.28C70.9926 28.7927 71.1116 28.26 71.1116 27.682C71.1116 27.0927 70.9926 26.56 70.7546 26.084C70.5279 25.608 70.1936 25.2283 69.7516 24.945C69.3209 24.6617 68.7939 24.52 68.1706 24.52C67.5473 24.52 67.0089 24.6617 66.5556 24.945C66.1023 25.2283 65.7566 25.608 65.5186 26.084C65.2806 26.56 65.1616 27.0927 65.1616 27.682C65.1616 28.26 65.2806 28.7927 65.5186 29.28C65.7566 29.756 66.1023 30.1357 66.5556 30.419C67.0089 30.7023 67.5473 30.844 68.1706 30.844ZM83.2091 32.136C82.0644 32.136 81.0784 31.881 80.2511 31.371C79.4351 30.8497 78.8061 30.1527 78.3641 29.28C77.9221 28.4073 77.7011 27.4383 77.7011 26.373C77.7011 25.3077 77.9278 24.3387 78.3811 23.466C78.8344 22.5933 79.4748 21.902 80.3021 21.392C81.1408 20.8707 82.1211 20.61 83.2431 20.61C84.4558 20.61 85.5041 20.9103 86.3881 21.511C87.2834 22.1003 87.9408 22.8653 88.3601 23.806H86.9661C86.6261 23.2053 86.1501 22.7293 85.5381 22.378C84.9374 22.0267 84.2064 21.851 83.3451 21.851C82.4384 21.851 81.6564 22.055 80.9991 22.463C80.3418 22.8597 79.8374 23.398 79.4861 24.078C79.1461 24.758 78.9761 25.523 78.9761 26.373C78.9761 27.2117 79.1461 27.9767 79.4861 28.668C79.8261 29.348 80.3191 29.892 80.9651 30.3C81.6224 30.6967 82.4044 30.895 83.3111 30.895C83.9911 30.895 84.6314 30.7477 85.2321 30.453C85.8441 30.1583 86.3371 29.7333 86.7111 29.178C87.0964 28.6227 87.2891 27.954 87.2891 27.172H83.1751V26.016H88.4621V32H87.2891V30.011C87.0511 30.3737 86.7451 30.7193 86.3711 31.048C85.9971 31.3653 85.5438 31.626 85.0111 31.83C84.4898 32.034 83.8891 32.136 83.2091 32.136ZM90.4282 32V23.5H91.7032V25.591C91.7486 25.4437 91.8336 25.251 91.9582 25.013C92.0942 24.7637 92.2869 24.5143 92.5362 24.265C92.7856 24.0157 93.0972 23.806 93.4712 23.636C93.8566 23.4547 94.3099 23.364 94.8312 23.364H94.9162V24.639H94.7632C94.1286 24.639 93.5789 24.8147 93.1142 25.166C92.6609 25.506 92.3096 25.9537 92.0602 26.509C91.8222 27.053 91.7032 27.6367 91.7032 28.26V32H90.4282ZM99.7618 32.136C98.9004 32.136 98.1524 31.9433 97.5178 31.558C96.8831 31.1613 96.3958 30.6287 96.0558 29.96C95.7158 29.2913 95.5458 28.5547 95.5458 27.75C95.5458 26.934 95.7158 26.1973 96.0558 25.54C96.3958 24.8713 96.8831 24.3443 97.5178 23.959C98.1524 23.5623 98.9004 23.364 99.7618 23.364C100.634 23.364 101.382 23.5623 102.006 23.959C102.64 24.3443 103.128 24.8713 103.468 25.54C103.808 26.1973 103.978 26.934 103.978 27.75C103.978 28.5547 103.808 29.2913 103.468 29.96C103.128 30.6287 102.64 31.1613 102.006 31.558C101.382 31.9433 100.634 32.136 99.7618 32.136ZM99.7618 30.98C100.396 30.98 100.929 30.8327 101.36 30.538C101.802 30.2433 102.136 29.8523 102.363 29.365C102.589 28.8663 102.703 28.328 102.703 27.75C102.703 27.1607 102.589 26.6223 102.363 26.135C102.136 25.6477 101.802 25.2567 101.36 24.962C100.929 24.6673 100.396 24.52 99.7618 24.52C99.1384 24.52 98.6058 24.6673 98.1638 24.962C97.7218 25.2567 97.3874 25.6477 97.1608 26.135C96.9341 26.6223 96.8208 27.1607 96.8208 27.75C96.8208 28.328 96.9341 28.8663 97.1608 29.365C97.3874 29.8523 97.7218 30.2433 98.1638 30.538C98.6058 30.8327 99.1384 30.98 99.7618 30.98ZM108.983 32.136C108.405 32.136 107.856 32 107.334 31.728C106.813 31.4447 106.388 31.031 106.059 30.487C105.742 29.9317 105.583 29.2517 105.583 28.447V23.5H106.858V28.413C106.858 29.1837 107.079 29.807 107.521 30.283C107.975 30.7477 108.547 30.98 109.238 30.98C109.714 30.98 110.145 30.8723 110.53 30.657C110.916 30.4303 111.222 30.1243 111.448 29.739C111.686 29.3537 111.805 28.906 111.805 28.396V23.5H113.08V32H111.805V30.674C111.499 31.082 111.125 31.4277 110.683 31.711C110.241 31.9943 109.675 32.136 108.983 32.136ZM115.297 35.366V23.5H116.572V24.86C116.89 24.3953 117.298 24.0327 117.796 23.772C118.306 23.5 118.913 23.364 119.615 23.364C120.443 23.364 121.162 23.5623 121.774 23.959C122.398 24.3443 122.879 24.8713 123.219 25.54C123.559 26.1973 123.729 26.934 123.729 27.75C123.729 28.5547 123.559 29.2913 123.219 29.96C122.879 30.6287 122.398 31.1613 121.774 31.558C121.162 31.9433 120.443 32.136 119.615 32.136C118.913 32.136 118.306 32 117.796 31.728C117.298 31.4447 116.89 31.0763 116.572 30.623V35.366H115.297ZM119.445 30.98C120.08 30.98 120.618 30.8327 121.06 30.538C121.514 30.2433 121.859 29.8523 122.097 29.365C122.335 28.8663 122.454 28.328 122.454 27.75C122.454 27.1607 122.335 26.6223 122.097 26.135C121.859 25.6477 121.514 25.2567 121.06 24.962C120.618 24.6673 120.08 24.52 119.445 24.52C118.822 24.52 118.289 24.6673 117.847 24.962C117.405 25.2567 117.071 25.6477 116.844 26.135C116.618 26.6223 116.504 27.1607 116.504 27.75C116.504 28.328 116.618 28.8663 116.844 29.365C117.071 29.8523 117.405 30.2433 117.847 30.538C118.289 30.8327 118.822 30.98 119.445 30.98Z" fill="white"/>
</svg>
