<svg width="230" height="164" viewBox="0 0 230 164" fill="none" xmlns="http://www.w3.org/2000/svg">
<path d="M230 0H1.70405e-06V163.971H230V0Z" fill="url(#paint0_radial_11_445)"/>
<path d="M221.975 151.45C209.555 142.36 157.464 104.945 128.881 84.5071C125.563 82.132 121.706 79.8448 114.986 79.8448C108.265 79.8448 104.409 82.132 101.091 84.5071C72.5361 104.945 20.4451 142.36 7.99655 151.45C7.08914 152.124 1.70405e-06 156.992 1.70405e-06 163.208V164H230V163.208C230 156.992 222.911 152.124 221.975 151.45Z" fill="url(#paint1_linear_11_445)"/>
<path d="M221.975 152.242C209.555 143.152 157.464 105.736 128.881 85.2988C125.563 82.9237 121.706 80.6365 114.986 80.6365C108.265 80.6365 104.409 82.9237 101.091 85.2988C72.5361 105.736 20.4451 143.152 7.99655 152.242C7.08914 152.916 1.70405e-06 157.784 1.70405e-06 163.971C0.255211 163.971 229.716 163.971 230 163.971C230 157.784 222.911 152.916 221.975 152.242Z" fill="url(#paint2_radial_11_445)"/>
<path d="M114.986 0.351868H0.0283583C0.0283583 3.51868 -0.0567117 7.65314 7.20257 12.9898C23.5643 24.9827 74.6912 63.0138 100.524 81.7508C106.082 85.7679 109.995 87.6446 114.986 87.6446C119.977 87.6446 123.89 85.7679 129.448 81.7508C155.309 63.0431 206.407 25.012 222.769 12.9898C230.057 7.65314 229.972 3.51868 229.972 0.351868H114.986Z" fill="white"/>
<path d="M114.986 0.351868C113.852 0.351868 0.0283583 0.351868 1.70405e-06 0.351868C1.70405e-06 3.54801 -0.028355 7.68246 7.23092 12.9898C23.5359 24.924 74.6345 62.9258 100.552 81.6921C106.054 85.68 109.995 87.5859 115.014 87.5859C120.033 87.5859 123.975 85.68 129.476 81.6921C155.366 62.9258 206.492 24.8947 222.769 12.9605C229.972 7.68246 229.972 3.54801 229.972 0.351868C229.972 0.351868 116.12 0.351868 114.986 0.351868Z" fill="#FAF9FA"/>
<path d="M114.986 0.351868C112.746 0.351868 0.0283583 0.351868 1.70405e-06 0.351868C1.70405e-06 3.57733 0.0567149 7.68246 7.25928 12.9605C23.4792 24.836 74.5777 62.8378 100.552 81.6628C105.997 85.6213 109.967 87.5566 115.014 87.5566C120.062 87.5566 124.003 85.592 129.476 81.6628C155.394 62.8378 206.521 24.836 222.712 12.9605C229.887 7.68246 229.943 3.57733 229.972 0.351868C229.943 0.351868 117.254 0.351868 114.986 0.351868Z" fill="#F4F3F5"/>
<path d="M114.986 0.351868C111.611 0.351868 0.0283583 0.351868 1.70405e-06 0.351868C1.70405e-06 3.60665 0.141784 7.71178 7.28764 12.9312C23.4225 24.7481 74.521 62.7499 100.552 81.6041C105.968 85.5333 109.938 87.5273 115.014 87.5273C120.09 87.5273 124.06 85.5333 129.476 81.6041C155.479 62.7499 206.606 24.7481 222.712 12.9312C229.83 7.71178 229.972 3.60665 229.972 0.351868C229.943 0.351868 118.36 0.351868 114.986 0.351868Z" fill="#EFECF0"/>
<path d="M114.986 0.351868C110.505 0.351868 0.0567148 0.351868 1.70405e-06 0.351868C1.70405e-06 3.63597 0.226854 7.71178 7.31599 12.9018C23.3374 24.6601 74.4643 62.6619 100.524 81.5455C105.883 85.4454 109.882 87.4686 114.986 87.4686C120.09 87.4686 124.088 85.4454 129.448 81.5455C155.507 62.6619 206.634 24.6601 222.656 12.9018C229.745 7.71178 229.972 3.63597 229.972 0.351868C229.943 0.351868 119.495 0.351868 114.986 0.351868Z" fill="#EAE7EC"/>
<path d="M114.986 0.351868C109.371 0.351868 0.0567148 0.351868 1.70405e-06 0.351868C1.70405e-06 3.69462 0.311924 7.74111 7.34435 12.9018C23.2807 24.6015 74.4076 62.6033 100.524 81.5162C105.827 85.3574 109.853 87.4393 114.986 87.4393C120.118 87.4393 124.117 85.3867 129.448 81.5162C155.564 62.5739 206.691 24.6015 222.627 12.9018C229.66 7.71178 229.972 3.6653 229.972 0.351868C229.943 0.351868 120.6 0.351868 114.986 0.351868Z" fill="#E4E1E7"/>
<path d="M114.986 0.351868C108.237 0.351868 0.0567148 0.351868 1.70405e-06 0.351868C1.70405e-06 3.72394 0.396993 7.74111 7.37271 12.8725C23.224 24.5135 74.3509 62.486 100.524 81.4869C105.798 85.2988 109.825 87.41 114.986 87.41C120.147 87.41 124.173 85.2988 129.448 81.4869C155.592 62.5153 206.748 24.5135 222.599 12.8725C229.575 7.74111 229.972 3.72394 229.972 0.351868C229.915 0.351868 121.735 0.351868 114.986 0.351868Z" fill="#DFDBE3"/>
<path d="M114.986 0.351868C107.131 0.351868 0.0567148 0.351868 1.70405e-06 0.351868C1.70405e-06 3.75326 0.482063 7.77043 7.40106 12.8432C23.1673 24.4255 74.3225 62.398 100.524 81.4282C105.742 85.2108 109.768 87.3513 114.986 87.3513C120.175 87.3513 124.23 85.2108 129.448 81.4282C155.649 62.398 206.804 24.4255 222.571 12.8432C229.49 7.77043 229.972 3.75326 229.972 0.351868C229.915 0.351868 122.869 0.351868 114.986 0.351868Z" fill="#DAD5DE"/>
<path d="M114.986 0.351868C105.997 0.351868 0.0850714 0.351868 1.70405e-06 0.351868C1.70405e-06 3.78259 0.567133 7.77043 7.42942 12.8139C23.1106 24.3376 74.2942 62.31 100.552 81.3696C105.742 85.1228 109.768 87.2927 115.014 87.2927C120.26 87.2927 124.287 85.1228 129.476 81.3696C155.734 62.31 206.889 24.3376 222.571 12.8139C229.405 7.77043 229.972 3.78259 229.972 0.351868C229.915 0.351868 123.975 0.351868 114.986 0.351868Z" fill="#D5CFDA"/>
<path d="M114.986 0.351868C104.863 0.351868 0.0850714 0.351868 1.70405e-06 0.351868C1.70405e-06 3.81191 0.652202 7.79975 7.45778 12.8139C23.0255 24.2789 74.2091 62.2221 100.524 81.3402C105.657 85.0642 109.712 87.2634 114.986 87.2634C120.232 87.2634 124.315 85.0642 129.448 81.3402C155.763 62.2221 206.918 24.2789 222.514 12.8139C229.319 7.77043 229.972 3.81191 229.972 0.351868C229.887 0.351868 125.109 0.351868 114.986 0.351868Z" fill="#D0CAD6"/>
<path d="M114.986 0.351868C103.757 0.351868 0.0850714 0.351868 1.70405e-06 0.351868C1.70405e-06 3.84123 0.737272 7.79975 7.48613 12.7846C22.9688 24.191 74.1524 62.1341 100.524 81.2816C105.6 84.9762 109.683 87.2047 114.986 87.2047C120.289 87.2047 124.372 84.9469 129.448 81.2816C155.791 62.1341 206.974 24.191 222.486 12.7846C229.263 7.79975 229.972 3.84123 229.972 0.351868C229.887 0.351868 126.215 0.351868 114.986 0.351868Z" fill="#CBC4D1"/>
<path d="M114.986 0.351868C102.622 0.351868 0.0850714 0.351868 1.70405e-06 0.351868C1.70405e-06 3.87055 0.793985 7.82907 7.51449 12.7552C22.9121 24.103 74.0957 62.0168 100.496 81.223C105.543 84.8883 109.626 87.1461 114.957 87.1461C120.289 87.1461 124.372 84.8589 129.419 81.223C155.819 62.0168 207.003 24.103 222.4 12.7552C229.149 7.79975 229.972 3.87055 229.972 0.351868C229.887 0.351868 127.349 0.351868 114.986 0.351868Z" fill="#C6BFCD"/>
<path d="M114.986 0.351868C101.516 0.351868 0.113428 0.351868 1.70405e-06 0.351868C1.70405e-06 3.9292 0.879055 7.82907 7.54285 12.7259C22.8554 24.015 74.039 61.9288 100.496 81.1643C105.486 84.8003 109.598 87.1168 114.957 87.1168C120.317 87.1168 124.429 84.8003 129.419 81.1643C155.876 61.9288 207.06 23.9857 222.372 12.7259C229.064 7.82907 229.972 3.89988 229.972 0.351868C229.887 0.351868 128.484 0.351868 114.986 0.351868Z" fill="#C1B9C9"/>
<path d="M114.986 0.351868C100.382 0.351868 0.113428 0.351868 1.70405e-06 0.351868C1.70405e-06 3.95852 0.964125 7.82907 7.5712 12.7259C22.7987 23.9564 74.0106 61.8702 100.496 81.135C105.43 84.7123 109.57 87.0874 114.957 87.0874C120.345 87.0874 124.457 84.7416 129.419 81.135C155.933 61.8409 207.116 23.9271 222.344 12.7259C229.008 7.82907 229.972 3.9292 229.972 0.351868C229.858 0.351868 129.589 0.351868 114.986 0.351868Z" fill="#BBB4C6"/>
<path d="M114.986 0.351868C99.2479 0.351868 0.113428 0.351868 1.70405e-06 0.351868C1.70405e-06 3.98784 1.04919 7.85839 7.62791 12.6966C22.7703 23.8684 73.9823 61.7529 100.524 81.1057C105.43 84.6537 109.57 87.0581 114.986 87.0581C120.402 87.0581 124.542 84.683 129.448 81.1057C156.018 61.7822 207.201 23.8684 222.344 12.6966C228.922 7.85839 229.972 3.98784 229.972 0.351868C229.858 0.351868 130.724 0.351868 114.986 0.351868Z" fill="#B7AFC2"/>
<path d="M114.986 0.351868C98.142 0.351868 0.113428 0.351868 1.70405e-06 0.351868C1.70405e-06 4.01716 1.13426 7.8584 7.65627 12.6673C22.7136 23.7511 73.9255 61.6649 100.552 81.0177C105.401 84.5364 109.57 86.9701 115.014 86.9701C120.459 86.9701 124.627 84.5364 129.476 81.0177C156.046 61.6649 207.258 23.7511 222.315 12.6673C228.837 7.8584 229.972 4.01716 229.972 0.351868C229.858 0.351868 131.858 0.351868 114.986 0.351868Z" fill="#B2A9BE"/>
<path d="M114.986 0.351868C97.0078 0.351868 0.141784 0.351868 1.70405e-06 0.351868C1.70405e-06 4.04649 1.21933 7.88772 7.68463 12.6379C22.6569 23.6632 73.8688 61.5477 100.524 80.9884C105.316 84.4777 109.513 86.9408 114.986 86.9408C120.459 86.9408 124.627 84.4777 129.448 80.9884C156.103 61.577 207.315 23.6925 222.287 12.6379C228.752 7.88772 229.972 4.04649 229.972 0.351868C229.858 0.351868 132.964 0.351868 114.986 0.351868Z" fill="#ADA4BA"/>
<path d="M114.986 0.351868C95.8735 0.351868 0.141784 0.351868 1.70405e-06 0.351868C1.70405e-06 4.07581 1.3044 7.88772 7.71299 12.6379C22.6002 23.6045 73.8121 61.489 100.524 80.9591C105.288 84.4191 109.485 86.9115 114.986 86.9115C120.487 86.9115 124.684 84.4191 129.448 80.9591C156.16 61.489 207.371 23.6045 222.259 12.6379C228.667 7.88772 229.972 4.07581 229.972 0.351868C229.83 0.351868 134.098 0.351868 114.986 0.351868Z" fill="#A89FB7"/>
<path d="M114.986 0.351868C94.7676 0.351868 0.141784 0.351868 1.70405e-06 0.351868C0.0283583 4.10513 1.38947 7.91704 7.7697 12.6086C22.5435 23.5165 73.7838 61.401 100.552 80.9004C105.26 84.3311 109.485 86.8529 115.014 86.8529C120.544 86.8529 124.769 84.3311 129.476 80.9004C156.245 61.401 207.457 23.5165 222.259 12.6086C228.582 7.91704 229.972 4.10513 229.972 0.351868C229.83 0.351868 135.204 0.351868 114.986 0.351868Z" fill="#A39AB3"/>
<path d="M114.986 0.351868C93.6333 0.351868 0.141784 0.351868 1.70405e-06 0.351868C1.70405e-06 4.16378 1.47454 7.91704 7.7697 12.5793C22.4867 23.4286 73.727 61.2838 100.552 80.8418C105.203 84.2432 109.456 86.7942 115.014 86.7942C120.572 86.7942 124.797 84.2138 129.476 80.8418C156.245 61.2838 207.513 23.4286 222.202 12.5793C228.497 7.91704 229.972 4.13445 229.972 0.351868C229.83 0.351868 136.338 0.351868 114.986 0.351868Z" fill="#9F96B0"/>
<path d="M114.986 0.351868C92.5274 0.351868 0.170141 0.351868 1.70405e-06 0.351868C1.70405e-06 4.1931 1.55961 7.94636 7.79805 12.55C22.4017 23.3406 73.6703 61.1958 100.524 80.7831C105.146 84.1552 109.4 86.7649 114.986 86.7649C120.572 86.7649 124.826 84.1552 129.448 80.7831C156.301 61.1958 207.57 23.3406 222.174 12.55C228.412 7.94636 229.972 4.16378 229.972 0.351868C229.83 0.351868 137.473 0.351868 114.986 0.351868Z" fill="#9A91AC"/>
<path d="M114.986 0.351868C91.3932 0.351868 0.170141 0.351868 1.70405e-06 0.351868C1.70405e-06 4.22242 1.61633 7.94636 7.82641 12.5207C22.345 23.2526 73.6136 61.0785 100.524 80.7245C105.089 84.0672 109.371 86.7062 114.986 86.7062C120.6 86.7062 124.882 84.0672 129.448 80.7245C156.358 61.0785 207.627 23.2526 222.145 12.5207C228.327 7.94636 229.972 4.22242 229.972 0.351868C229.802 0.351868 138.578 0.351868 114.986 0.351868Z" fill="#958CA9"/>
<path d="M114.986 0.351868C90.2589 0.351868 0.170141 0.351868 1.70405e-06 0.351868C1.70405e-06 4.25174 1.70139 7.97568 7.85477 12.5207C22.2883 23.194 73.5569 61.0198 100.524 80.7245C105.061 84.0086 109.315 86.7062 114.986 86.7062C120.629 86.7062 124.911 84.0379 129.448 80.7245C156.415 61.0492 207.683 23.2233 222.117 12.5207C228.27 7.94636 229.972 4.25174 229.972 0.351868C229.802 0.351868 139.713 0.351868 114.986 0.351868Z" fill="#9187A5"/>
<path d="M114.986 0.351868C89.153 0.351868 0.198498 0.351868 1.70405e-06 0.351868C1.70405e-06 4.28107 1.78646 7.97568 7.88312 12.4913C22.2599 23.106 73.5285 60.9026 100.552 80.6365C105.033 83.8913 109.315 86.6183 115.014 86.6183C120.686 86.6183 124.996 83.8913 129.476 80.6365C156.471 60.9026 207.768 23.0767 222.089 12.462C228.185 7.94636 229.972 4.25174 229.972 0.322546C229.802 0.351868 140.847 0.351868 114.986 0.351868Z" fill="#8C83A2"/>
<path d="M114.986 0.351868C88.0187 0.351868 0.198498 0.351868 1.70405e-06 0.351868C1.70405e-06 4.31039 1.87153 8.00501 7.91148 12.462C22.1748 23.0181 73.4435 60.8146 100.496 80.6072C104.919 83.8326 109.229 86.589 114.957 86.589C120.657 86.589 124.996 83.8326 129.419 80.6072C156.5 60.8146 207.797 23.0181 222.032 12.462C228.1 7.97568 229.972 4.31039 229.972 0.351868C229.802 0.351868 141.953 0.351868 114.986 0.351868Z" fill="#887E9F"/>
<path d="M114.986 0.351868C86.9128 0.351868 0.198498 0.351868 1.70405e-06 0.351868C1.70405e-06 4.33971 1.9566 8.00501 7.93984 12.4327C22.1181 22.9301 73.3868 60.7266 100.496 80.5485C104.891 83.7447 109.201 86.5303 114.957 86.5303C120.714 86.5303 125.024 83.7447 129.419 80.5485C156.557 60.7266 207.854 22.9301 222.003 12.4327C227.987 8.00501 229.943 4.33971 229.943 0.351868C229.773 0.351868 143.087 0.351868 114.986 0.351868Z" fill="#837A9C"/>
<path d="M114.986 0.351868C85.7786 0.351868 0.198498 0.351868 1.70405e-06 0.351868C1.70405e-06 4.39836 2.04167 8.03433 7.96819 12.4327C22.033 22.8714 73.33 60.668 100.496 80.5192C104.834 83.686 109.173 86.501 114.957 86.501C120.742 86.501 125.081 83.686 129.419 80.5192C156.585 60.668 207.882 22.8714 221.947 12.4327C227.902 8.03433 229.915 4.39836 229.915 0.351868C229.773 0.351868 144.193 0.351868 114.986 0.351868Z" fill="#7F7599"/>
<path d="M114.986 0.351868C84.6443 0.351868 0.226854 0.351868 1.70405e-06 0.351868C1.70405e-06 4.42768 2.12674 8.03433 8.02491 12.4034C22.0047 22.7835 73.33 60.5507 100.524 80.4606C104.806 83.5981 109.173 86.4423 114.986 86.4423C120.799 86.4423 125.137 83.5687 129.448 80.4606C156.67 60.5507 207.967 22.7835 221.947 12.4034C227.845 8.03433 229.972 4.39836 229.972 0.351868C229.773 0.351868 145.327 0.351868 114.986 0.351868Z" fill="#7A7196"/>
<path d="M114.986 0.351868C83.5384 0.351868 0.226854 0.351868 1.70405e-06 0.351868C1.70405e-06 4.457 2.21181 8.06365 8.05326 12.374C21.948 22.6955 73.2733 60.4627 100.524 80.4019C104.777 83.5101 109.144 86.413 114.986 86.413C120.827 86.413 125.194 83.5101 129.448 80.4019C156.698 60.4627 208.024 22.6662 221.918 12.374C227.76 8.03433 229.972 4.457 229.972 0.351868C229.745 0.351868 146.462 0.351868 114.986 0.351868Z" fill="#766D93"/>
<path d="M114.986 0.351868C82.4042 0.351868 0.226854 0.351868 1.70405e-06 0.351868C1.70405e-06 4.48632 2.29688 8.06365 8.08162 12.3447C21.8913 22.6075 73.2166 60.3454 100.524 80.3433C104.721 83.4221 109.116 86.3544 114.986 86.3544C120.856 86.3544 125.251 83.4221 129.448 80.3433C156.755 60.3454 208.08 22.5782 221.89 12.3447C227.675 8.06365 229.972 4.48632 229.972 0.351868C229.745 0.351868 147.568 0.351868 114.986 0.351868Z" fill="#716890"/>
<path d="M114.986 0.351868C81.2699 0.351868 0.226854 0.351868 1.70405e-06 0.351868C1.70405e-06 4.51564 2.3536 8.06365 8.10998 12.3447C21.8345 22.5489 73.1599 60.2868 100.524 80.3433C104.664 83.3635 109.088 86.3544 114.986 86.3544C120.884 86.3544 125.279 83.3928 129.448 80.3433C156.812 60.2575 208.137 22.5196 221.862 12.3154C227.59 8.06365 229.972 4.51564 229.972 0.351868C229.745 0.351868 148.702 0.351868 114.986 0.351868Z" fill="#6D648D"/>
<path d="M114.986 0.351868C80.164 0.351868 0.255211 0.351868 1.70405e-06 0.351868C1.70405e-06 4.54497 2.43867 8.09297 8.13833 12.3154C21.7778 22.4609 73.1032 60.1988 100.524 80.2846C104.636 83.2755 109.059 86.2957 114.986 86.2957C120.912 86.2957 125.336 83.2755 129.448 80.2846C156.868 60.1695 208.194 22.4316 221.833 12.3154C227.505 8.09297 229.972 4.54497 229.972 0.351868C229.745 0.351868 149.808 0.351868 114.986 0.351868Z" fill="#69608B"/>
<path d="M114.986 0.351868C79.0297 0.351868 0.255211 0.351868 1.70405e-06 0.351868C1.70405e-06 4.57429 2.52373 8.09297 8.16669 12.2861C21.7211 22.373 73.0465 60.0815 100.524 80.226C104.579 83.1876 109.031 86.2371 114.986 86.2371C120.941 86.2371 125.393 83.1876 129.448 80.226C156.897 60.1109 208.251 22.373 221.805 12.2861C227.448 8.09297 229.972 4.57429 229.972 0.351868C229.716 0.351868 150.942 0.351868 114.986 0.351868Z" fill="#645C88"/>
<path d="M114.986 0.351868C77.9238 0.351868 0.255211 0.351868 1.70405e-06 0.351868C1.70405e-06 4.63293 2.6088 8.1223 8.19505 12.2567C21.6644 22.285 73.0181 59.9936 100.524 80.1674C104.522 83.0996 109.003 86.1784 114.986 86.1784C120.969 86.1784 125.421 83.0996 129.448 80.1674C156.954 59.9936 208.307 22.285 221.777 12.2567C227.363 8.1223 229.972 4.60361 229.972 0.351868C229.716 0.351868 152.076 0.351868 114.986 0.351868Z" fill="#605885"/>
<path d="M114.986 0.351868C76.7896 0.351868 0.283567 0.351868 0.0283583 0.351868C0.0283583 4.66226 2.72223 8.1223 8.25176 12.2567C21.6361 22.197 72.9898 59.9349 100.552 80.138C104.522 83.0409 109.003 86.1491 115.014 86.1491C121.026 86.1491 125.506 83.0409 129.476 80.138C157.01 59.9056 208.364 22.197 221.748 12.2274C227.278 8.1223 229.972 4.63293 229.972 0.322546C229.716 0.351868 153.182 0.351868 114.986 0.351868Z" fill="#5C5583"/>
<path d="M114.986 0.351868C75.6836 0.351868 0.283567 0.351868 0.0283583 0.351868C0.0283583 4.69158 2.8073 8.15162 8.28012 12.2274C21.551 22.1091 72.9331 59.8176 100.524 80.0794C104.437 82.953 108.946 86.0905 114.986 86.0905C121.026 86.0905 125.534 82.9237 129.448 80.0794C157.067 59.8176 208.421 22.1091 221.72 12.2274C227.193 8.15162 229.972 4.69158 229.972 0.351868C229.716 0.351868 154.316 0.351868 114.986 0.351868Z" fill="#585180"/>
<path d="M114.986 0.351868C74.5494 0.351868 0.283567 0.351868 0.0283583 0.351868C0.0283583 4.7209 2.89237 8.15162 8.30847 12.1981C21.4943 22.0211 72.8764 59.7297 100.524 80.0207C104.409 82.865 108.918 86.0318 114.986 86.0318C121.054 86.0318 125.563 82.8357 129.448 80.0207C157.095 59.7297 208.477 22.0211 221.663 12.1981C227.108 8.15162 229.972 4.7209 229.972 0.351868C229.688 0.351868 155.451 0.351868 114.986 0.351868Z" fill="#544D7E"/>
<path d="M114.986 0.351868C73.4151 0.351868 0.283567 0.351868 0.0283583 0.351868C0.0283583 4.75022 2.97744 8.18094 8.33683 12.1688C21.4376 21.9331 72.8196 59.6124 100.524 79.9621C104.352 82.777 108.889 86.0025 114.986 86.0025C121.082 86.0025 125.62 82.777 129.448 79.9621C157.152 59.6124 208.534 21.9331 221.635 12.1688C227.023 8.15162 229.943 4.75022 229.943 0.351868C229.688 0.351868 156.557 0.351868 114.986 0.351868Z" fill="#4F497B"/>
<path d="M114.986 0.351868C72.3092 0.351868 0.311924 0.351868 0.0283583 0.351868C0.0283583 4.77955 3.06251 8.18094 8.36519 12.1688C21.3808 21.8745 72.7629 59.5537 100.524 79.9621C104.295 82.7184 108.832 86.0025 114.986 86.0025C121.111 86.0025 125.676 82.7477 129.448 79.9621C157.209 59.5537 208.591 21.9038 221.606 12.1688C226.938 8.18094 229.972 4.77955 229.972 0.351868C229.688 0.351868 157.691 0.351868 114.986 0.351868Z" fill="#4B4679"/>
<path d="M114.986 0.351868C71.1749 0.351868 0.311924 0.351868 0.0283583 0.351868C0.0283583 4.80887 3.14758 8.21026 8.4219 12.1395C21.3525 21.7865 72.7346 59.4658 100.552 79.9035C104.295 82.6304 108.832 85.9439 115.014 85.9439C121.168 85.9439 125.733 82.6304 129.476 79.9035C157.294 59.4658 208.676 21.7865 221.606 12.1395C226.852 8.18094 229.972 4.80887 229.972 0.351868C229.688 0.351868 158.797 0.351868 114.986 0.351868Z" fill="#474276"/>
<path d="M114.986 0.351868C70.0407 0.351868 0.311924 0.351868 1.70405e-06 0.351868C1.70405e-06 4.86751 3.17594 8.21026 8.4219 12.1101C21.2674 21.6986 72.6778 59.3485 100.524 79.8448C104.21 82.5425 108.776 85.8852 114.986 85.8852C121.168 85.8852 125.761 82.5425 129.448 79.8448C157.322 59.3485 208.704 21.6986 221.55 12.1101C226.767 8.21026 229.972 4.83819 229.972 0.351868C229.66 0.351868 159.931 0.351868 114.986 0.351868Z" fill="#433F74"/>
<path d="M114.986 0.351868C68.9348 0.351868 0.311924 0.351868 1.70405e-06 0.351868C1.70405e-06 4.89684 3.26101 8.23959 8.45025 12.0808C21.2107 21.6106 72.6211 59.2605 100.524 79.7862C104.154 82.4545 108.747 85.8266 114.986 85.8266C121.224 85.8266 125.79 82.4545 129.448 79.7862C157.351 59.2605 208.761 21.6106 221.521 12.0808C226.682 8.21026 229.972 4.86751 229.972 0.351868C229.66 0.351868 161.065 0.351868 114.986 0.351868Z" fill="#3F3C72"/>
<path d="M114.986 0.351868C67.8005 0.351868 0.311924 0.351868 1.70405e-06 0.351868C1.70405e-06 4.92616 3.34607 8.23959 8.47861 12.0808C21.154 21.5519 72.5644 59.2019 100.524 79.7568C104.125 82.3959 108.719 85.7972 114.986 85.7972C121.253 85.7972 125.846 82.3959 129.448 79.7568C157.407 59.1725 208.818 21.5519 221.493 12.0808C226.626 8.26891 229.972 4.92616 229.972 0.351868C229.66 0.351868 162.171 0.351868 114.986 0.351868Z" fill="#3B386F"/>
<path d="M114.986 0.351868C66.6663 0.351868 0.34028 0.351868 1.70405e-06 0.351868C1.70405e-06 4.95548 3.43114 8.26891 8.50697 12.0515C21.0689 21.464 72.5077 59.0846 100.524 79.6982C104.069 82.3079 108.691 85.7386 114.986 85.7386C121.281 85.7386 125.903 82.3079 129.448 79.6982C157.464 59.0846 208.903 21.4347 221.465 12.0515C226.541 8.26891 229.972 4.95548 229.972 0.351868C229.66 0.351868 163.305 0.351868 114.986 0.351868Z" fill="#37356D"/>
<path d="M114.986 0.351868C65.5604 0.351868 0.34028 0.351868 1.70405e-06 0.351868C1.70405e-06 4.9848 3.51621 8.26891 8.53533 12.0222C21.0122 21.376 72.451 58.9966 100.524 79.6395C104.012 82.2199 108.662 85.68 114.986 85.68C121.309 85.68 125.931 82.1906 129.448 79.6395C157.521 58.9673 208.931 21.376 221.436 12.0222C226.455 8.26891 229.972 4.9848 229.972 0.351868C229.631 0.351868 164.411 0.351868 114.986 0.351868Z" fill="#33326B"/>
<path d="M114.986 0.351868C64.4261 0.351868 0.34028 0.351868 1.70405e-06 0.351868C1.70405e-06 5.01412 3.60128 8.29823 8.56368 11.9928C20.9839 21.288 72.4226 58.8793 100.524 79.5809C103.983 82.132 108.634 85.6506 114.986 85.6506C121.338 85.6506 125.988 82.132 129.448 79.5809C157.549 58.8793 208.988 21.2587 221.408 11.9928C226.37 8.26891 229.972 5.01412 229.972 0.351868C229.631 0.351868 165.546 0.351868 114.986 0.351868Z" fill="#302F69"/>
<path d="M114.986 0.351868C63.3202 0.351868 0.368637 0.351868 1.70405e-06 0.351868C1.70405e-06 5.04345 3.68635 8.29823 8.59204 11.9928C20.8988 21.2294 72.3376 58.8207 100.524 79.5809C103.927 82.0733 108.606 85.6506 114.986 85.6506C121.366 85.6506 126.045 82.1026 129.448 79.5809C157.606 58.8207 209.073 21.2294 221.38 11.9928C226.285 8.29823 229.972 5.04345 229.972 0.351868C229.631 0.351868 166.68 0.351868 114.986 0.351868Z" fill="#2C2C67"/>
<path d="M114.986 0.351868C62.1859 0.351868 0.368637 0.351868 1.70405e-06 0.351868C1.70405e-06 5.10209 3.77142 8.29823 8.62039 11.9635C20.8704 21.1121 72.3376 58.7034 100.524 79.4929C103.87 81.956 108.577 85.5627 114.986 85.5627C121.394 85.5627 126.073 81.9853 129.448 79.4929C157.662 58.7034 209.13 21.1121 221.351 11.9635C226.2 8.29823 229.972 5.07277 229.972 0.351868C229.631 0.351868 167.786 0.351868 114.986 0.351868Z" fill="#282965"/>
<path d="M114.986 0.351868C61.0517 0.351868 0.368637 0.351868 1.70405e-06 0.351868C1.70405e-06 5.13141 3.85649 8.32755 8.64875 11.9342C20.8137 21.0241 72.2809 58.6154 100.524 79.4636C103.842 81.8974 108.549 85.5333 114.986 85.5333C121.423 85.5333 126.13 81.8974 129.448 79.4636C157.719 58.6154 209.186 21.0535 221.295 11.9342C226.115 8.32755 229.943 5.13141 229.943 0.351868C229.603 0.351868 168.92 0.351868 114.986 0.351868Z" fill="#242662"/>
<path d="M114.986 0.351868C59.9458 0.351868 0.368637 0.351868 1.70405e-06 0.351868C1.70405e-06 5.16074 3.94156 8.32755 8.67711 11.9049C20.7286 20.9655 72.1958 58.5274 100.496 79.405C103.757 81.8094 108.492 85.4747 114.957 85.4747C121.423 85.4747 126.158 81.8094 129.419 79.405C157.748 58.5274 209.215 20.9655 221.238 11.9049C226.002 8.32755 229.915 5.16074 229.915 0.351868C229.603 0.351868 170.054 0.351868 114.986 0.351868Z" fill="#202360"/>
<path d="M114.986 0.351868C58.8115 0.351868 0.396993 0.351868 1.70405e-06 0.351868C1.70405e-06 5.19006 3.99828 8.35687 8.70546 11.8756C20.7003 20.8775 72.1674 58.4395 100.524 79.3463C103.757 81.7214 108.492 85.4161 114.986 85.4161C121.479 85.4161 126.215 81.7214 129.448 79.3463C157.804 58.4102 209.3 20.8482 221.238 11.8756C225.945 8.35687 229.972 5.19006 229.972 0.351868C229.603 0.351868 171.16 0.351868 114.986 0.351868Z" fill="#1D205E"/>
<path d="M114.986 0.351868C57.6772 0.351868 0.396993 0.351868 1.70405e-06 0.351868C1.70405e-06 5.21938 4.08335 8.35687 8.73382 11.8756C20.6152 20.7896 72.0824 58.3515 100.496 79.317C103.672 81.6628 108.435 85.3867 114.957 85.3867C121.479 85.3867 126.243 81.6628 129.419 79.317C157.861 58.3515 209.356 20.7896 221.209 11.8462C225.888 8.35688 229.972 5.21938 229.972 0.351868C229.575 0.351868 172.294 0.351868 114.986 0.351868Z" fill="#191E5D"/>
<path d="M1.70405e-06 0.674414C1.70405e-06 3.43072 0.170141 5.07277 0.793985 6.27499C1.64468 7.91704 2.92073 8.70874 4.70719 9.96961C17.2124 18.9422 72.5077 59.1725 101.29 79.8448C107.131 84.0379 110.08 85.3867 115.014 85.3867C119.948 85.3867 122.897 84.0379 128.739 79.8448C157.492 59.1725 212.788 18.9716 225.293 9.96961C227.079 8.67942 228.355 7.91704 229.206 6.27499C229.83 5.07277 230 3.43072 230 0.674414V0H1.70405e-06V0.674414Z" fill="url(#paint3_linear_11_445)"/>
<path d="M1.70405e-06 0C1.70405e-06 2.7563 0.170141 4.39836 0.793985 5.60057C1.64468 7.24262 2.92073 8.03433 4.70719 9.29519C17.2124 18.2972 72.4794 58.4981 101.261 79.1704C107.103 83.3635 110.052 84.7123 114.986 84.7123C119.92 84.7123 122.869 83.3635 128.71 79.1704C157.492 58.4981 212.788 18.2972 225.293 9.29519C227.079 8.00501 228.355 7.24262 229.206 5.60057C229.83 4.39836 230 2.7563 230 0H1.70405e-06Z" fill="url(#paint4_radial_11_445)"/>
<defs>
<radialGradient id="paint0_radial_11_445" cx="0" cy="0" r="1" gradientUnits="userSpaceOnUse" gradientTransform="translate(-24.2749 -61.2954) scale(355.012 367.169)">
<stop stop-color="#35A1C9"/>
<stop offset="1" stop-color="#2E58A6"/>
</radialGradient>
<linearGradient id="paint1_linear_11_445" x1="106.988" y1="81.9904" x2="128.393" y2="81.9904" gradientUnits="userSpaceOnUse">
<stop stop-color="#34B3D1"/>
<stop offset="0.2939" stop-color="#2995C1"/>
<stop offset="0.9401" stop-color="#0E529C"/>
<stop offset="1" stop-color="#094C99"/>
</linearGradient>
<radialGradient id="paint2_radial_11_445" cx="0" cy="0" r="1" gradientUnits="userSpaceOnUse" gradientTransform="translate(-24.275 -279.298) scale(355.012 722.453)">
<stop stop-color="#35A1C9"/>
<stop offset="1" stop-color="#2E58A6"/>
</radialGradient>
<linearGradient id="paint3_linear_11_445" x1="95.6121" y1="81.9978" x2="130.657" y2="81.9978" gradientUnits="userSpaceOnUse">
<stop stop-color="#35A1C9"/>
<stop offset="0.3608" stop-color="#3388BD"/>
<stop offset="1" stop-color="#2E58A6"/>
</linearGradient>
<radialGradient id="paint4_radial_11_445" cx="0" cy="0" r="1" gradientUnits="userSpaceOnUse" gradientTransform="translate(-24.2748 -61.2846) scale(355.011 367.102)">
<stop stop-color="#34B3D1"/>
<stop offset="1" stop-color="#2E58A6"/>
</radialGradient>
</defs>
</svg>
